<?xml version="1.0" encoding="UTF-8" standalone="no"?>
<!-- Generator: Adobe Illustrator 18.1.1, SVG Export Plug-In . SVG Version: 6.00 Build 0)  -->

<svg
   version="1.1"
   id="Capa_1"
   x="0px"
   y="0px"
   viewBox="0 0 24.00028 48"
   xml:space="preserve"
   sodipodi:docname="unknown.svg"
   width="24.00028"
   height="48"
   inkscape:version="1.2.1 (9c6d41e410, 2022-07-14)"
   xmlns:inkscape="http://www.inkscape.org/namespaces/inkscape"
   xmlns:sodipodi="http://sodipodi.sourceforge.net/DTD/sodipodi-0.dtd"
   xmlns="http://www.w3.org/2000/svg"
   xmlns:svg="http://www.w3.org/2000/svg"><defs
   id="defs44" /><sodipodi:namedview
   id="namedview42"
   pagecolor="#505050"
   bordercolor="#eeeeee"
   borderopacity="1"
   inkscape:pageshadow="0"
   inkscape:pageopacity="0"
   inkscape:pagecheckerboard="0"
   showgrid="false"
   fit-margin-top="0"
   fit-margin-left="0"
   fit-margin-right="0"
   fit-margin-bottom="0"
   inkscape:zoom="12.4375"
   inkscape:cx="-0.84422111"
   inkscape:cy="27.577889"
   inkscape:window-width="1920"
   inkscape:window-height="1009"
   inkscape:window-x="-8"
   inkscape:window-y="-8"
   inkscape:window-maximized="1"
   inkscape:current-layer="Capa_1"
   inkscape:showpageshadow="0"
   inkscape:deskcolor="#505050" />
<path
   id="path2"
   style="fill:#030104;stroke-width:1.50002"
   d="M 14.400167,44.999965 C 14.400167,46.652984 13.057653,48 11.400133,48 9.742613,48 8.400098,46.652984 8.400098,44.999965 c 0,-1.663519 1.342515,-3.000035 3.000035,-3.000035 1.65752,0 3.000034,1.336516 3.000034,3.000035 z m -2.886032,-6.034571 c -2.004024,0 -3.885046,-0.784509 -5.302563,-2.203525 -1.417516,-1.65752 -2.197526,-3.538542 -2.197526,-5.542565 0,-2.004024 0.78001,-3.885046 2.197526,-5.056559 L 16.243689,16.130628 c 1.132514,-1.137014 1.756521,-2.643032 1.756521,-4.24205 0,-1.605019 -0.624007,-3.1110367 -1.75802,-4.2420499 -2.338527,-2.3385274 -6.144072,-2.3430274 -8.4811,0 C 6.624077,8.7775413 6.00007,10.282059 6.00007,11.888578 H 0 C 0,8.6830402 1.251014,5.6665049 3.522041,3.3984784 c 4.530053,-4.534553 12.427644,-4.530053 16.963698,0.006 2.266526,2.2605264 3.514541,5.2725616 3.514541,8.4840996 0,3.205537 -1.248015,6.217573 -3.516041,8.484099 l -10.032117,9.784614 c -0.583507,0.586507 -0.583507,1.534518 0,2.121025 0.586506,0.586507 1.534517,0.586507 2.121024,0 0.381005,-0.387004 0.439506,-0.832509 0.439506,-1.066512 h 6.00007 c 0,2.004023 -0.780009,3.891045 -2.197525,5.548565 -1.416018,1.419016 -3.297039,2.205025 -5.301062,2.205025 z" />















</svg>
