<?xml version="1.0" encoding="UTF-8" standalone="no"?>
<!-- Generator: Adobe Illustrator 18.0.0, SVG Export Plug-In . SVG Version: 6.00 Build 0)  -->

<svg
   version="1.1"
   id="Capa_1"
   x="0px"
   y="0px"
   viewBox="0 0 305.8656 495.281"
   xml:space="preserve"
   sodipodi:docname="bar.svg"
   width="305.8656"
   height="495.28101"
   inkscape:version="1.1 (c68e22c387, 2021-05-23)"
   xmlns:inkscape="http://www.inkscape.org/namespaces/inkscape"
   xmlns:sodipodi="http://sodipodi.sourceforge.net/DTD/sodipodi-0.dtd"
   xmlns="http://www.w3.org/2000/svg"
   xmlns:svg="http://www.w3.org/2000/svg"><defs
   id="defs36" /><sodipodi:namedview
   id="namedview34"
   pagecolor="#505050"
   bordercolor="#eeeeee"
   borderopacity="1"
   inkscape:pageshadow="0"
   inkscape:pageopacity="0"
   inkscape:pagecheckerboard="0"
   showgrid="false"
   fit-margin-top="0"
   fit-margin-left="0"
   fit-margin-right="0"
   fit-margin-bottom="0"
   inkscape:zoom="1.6071684"
   inkscape:cx="153.06423"
   inkscape:cy="247.3294"
   inkscape:window-width="2880"
   inkscape:window-height="1541"
   inkscape:window-x="2869"
   inkscape:window-y="-11"
   inkscape:window-maximized="1"
   inkscape:current-layer="Capa_1" />
<path
   id="oversized-wine-glass-2"
   style="fill:#000100"
   d="M 169.37461,433.09 V 263.641 c 79.75,-9.133 136.491,-75.908 136.491,-152.08 0,-28.795 -7.996,-64.61 -21.854,-99.33 C 281.06761,4.847 273.90961,0 265.96361,0 H 39.773606 c -7.951,0 -15.108,4.847 -18.049,12.232 C 9.2126062,43.581 -0.50839382,80.534 0.02060618,114.633 v 0 c 0,0.032 0.009,0.064 0.009,0.095 C 1.5696062,189.853 57.843606,254.871 136.35261,263.641 V 433.09 c -51.979004,4.254 -91.823004,27.358 -91.823004,38.974 0,12.834 48.501,23.217 108.341004,23.217 59.839,0 108.345,-10.383 108.345,-23.217 0,-11.616 -39.857,-34.725 -91.841,-38.974 z M 49.115606,33.021 H 256.61761 c 10.361,28.255 16.227,56.47 16.227,78.541 0,5.359 -0.476,10.61 -1.16,15.792 -10.324,-2.573 -21.025,-2.913 -32.504,1.173 -29.977,10.673 -49.411,17.509 -79.909,5.549 -30.325,-11.901 -49.488,-65.96 -85.852004,-61.847 -14.447,1.626 -26.842,6.378 -38.031,12.979 2.596,-16.38 7.126,-34.18 13.727,-52.187 z" />















</svg>
