<?xml version="1.0" encoding="UTF-8" standalone="no"?>
<!-- Svg Vector Icons : http://www.onlinewebfonts.com/icon -->

<svg
   version="1.1"
   x="0px"
   y="0px"
   viewBox="0 0 927.04242 979.90002"
   enable-background="new 0 0 1000 1000"
   xml:space="preserve"
   id="svg8"
   sodipodi:docname="cafe.svg"
   width="927.04242"
   height="979.90002"
   inkscape:version="1.1 (c68e22c387, 2021-05-23)"
   xmlns:inkscape="http://www.inkscape.org/namespaces/inkscape"
   xmlns:sodipodi="http://sodipodi.sourceforge.net/DTD/sodipodi-0.dtd"
   xmlns="http://www.w3.org/2000/svg"
   xmlns:svg="http://www.w3.org/2000/svg"><defs
   id="defs12" /><sodipodi:namedview
   id="namedview10"
   pagecolor="#505050"
   bordercolor="#eeeeee"
   borderopacity="1"
   inkscape:pageshadow="0"
   inkscape:pageopacity="0"
   inkscape:pagecheckerboard="0"
   showgrid="false"
   fit-margin-top="0"
   fit-margin-left="0"
   fit-margin-right="0"
   fit-margin-bottom="0"
   inkscape:zoom="0.796"
   inkscape:cx="463.56784"
   inkscape:cy="489.32161"
   inkscape:window-width="2880"
   inkscape:window-height="1541"
   inkscape:window-x="2869"
   inkscape:window-y="-11"
   inkscape:window-maximized="1"
   inkscape:current-layer="svg8" />
<metadata
   id="metadata2"> Svg Vector Icons : http://www.onlinewebfonts.com/icon </metadata>
<path
   d="m 797.7831,759.5 c -6.6,2.2 -14.3,4 -23,5.5 -0.7,0 -1.5,0.2 -2.2,0.6 -0.7,0.4 -1.8,0.6 -3.3,0.6 -8,1.5 -15.4,2.2 -21.9,2.2 -6.5,0 -13.9,-0.4 -21.9,-1.1 h -4.4 l -20.8,-3.3 c -0.7,0.7 -5.3,7.3 -13.7,19.7 -8.4,12.4 -13.9,20.4 -16.4,24.1 -2.6,3.7 -8.1,11.1 -16.4,22.5 -8.4,11.3 -15.1,19.9 -20.3,25.8 -5.1,5.8 -11.5,13 -19.2,21.4 -7.7,8.4 -15.5,15.9 -23.6,22.5 h -307 c -31.4,-16.1 -59.2,-38.4 -83.3,-66.9 -24.1,-28.5 -42.7,-56.8 -55.9,-85 -13.1,-28.1 -24.1,-59.2 -32.9,-93.2 -8.8,-34 -14.599999,-61.2 -17.499999,-81.7 -2.9,-20.5 -5.1,-40.6 -6.6,-60.3 v -22 c 0,-14.6 5.3,-28.3 15.899999,-41.1 10.6,-12.8 22.8,-19.2 36.7,-19.2 h 590.8 c 6.6,0 12.8,1.6 18.7,4.9 5.9,3.3 11,7.3 15.3,12.1 4.4,4.8 8,10.1 11,15.9 2.9,5.8 5.1,11.7 6.6,17.5 7.3,0.7 15,1.8 23,3.3 h 2.2 c 14.6,2.2 28.5,6.6 41.7,13.2 1.5,0 2.6,0.4 3.3,1.1 l 8.8,4.4 c 1.5,0.7 2.9,1.6 4.4,2.7 1.5,1.1 2.9,2 4.4,2.7 2.9,2.2 5.7,4.2 8.2,6 2.6,1.8 4.9,4.2 7.1,7.1 0.7,0 1.1,0.4 1.1,1.1 l 2.2,1.1 c 2.2,2.2 4.4,4.6 6.6,7.1 2.2,2.6 4.4,5 6.6,7.1 v 0 c 2.2,2.9 4,5.7 5.5,8.2 1.5,2.6 2.9,5.3 4.4,8.2 l 2.2,4.4 c 3.7,6.6 6.2,12.4 7.7,17.5 11,38 4.4,74.7 -19.7,110.2 -24.3,35.7 -59,60 -104.4,73.1 z M 251.8831,491 h -86.6 c 0.7,0.7 0.6,5.7 -0.6,14.8 -1.2,9.1 -0.6,22.6 1.7,40.5 2.2,17.9 4.6,37.3 7.1,58.1 2.6,20.8 7.7,43.1 15.3,66.9 7.7,23.7 16.6,46.4 26.9,68 10.2,21.6 24.3,42.2 42.2,61.9 17.9,19.7 38.2,35.4 60.9,47.1 -24.1,-46.8 -42.7,-91.4 -55.9,-133.7 -13.1,-42.4 -21,-76 -23.6,-100.8 -2.6,-24.8 -2.8,-47.9 -0.6,-69.1 2.2,-21.2 4.6,-34.7 7.1,-40.5 2.6,-6 4.6,-10.3 6.1,-13.2 z m 606.2,104.1 c -2.9,-10.2 -8,-19.5 -15.3,-28 -7.3,-8.4 -16.3,-15 -26.9,-19.7 -10.6,-4.7 -21.7,-7.8 -33.4,-9.3 -1.5,24.1 -6.2,51.3 -14.2,81.7 -8,30.3 -20.8,60.9 -38.4,91.5 4.4,0.7 7.3,1.1 8.8,1.1 l 1.1,1.1 h 2.2 c 5.1,0 11,-0.4 17.5,-1.1 h 4.4 v -1.1 c 7.3,-0.7 13.5,-1.8 18.7,-3.3 27.8,-8 49.1,-23 64.1,-45 14.9,-21.8 18.7,-44.5 11.4,-67.9 z M 485.2831,400 c 15.4,-20.5 27,-39.5 35.1,-57 8,-17.5 12.2,-32.7 12.6,-45.5 0.4,-12.8 -0.7,-24.3 -3.3,-34.5 -2.6,-10.2 -7.3,-19.4 -14.2,-27.4 -6.9,-8 -13.5,-14.6 -19.7,-19.7 -6.2,-5.1 -13.2,-10.4 -20.8,-15.9 -7.7,-5.5 -13,-9.3 -15.9,-11.5 -6.6,-7.3 -11.9,-19.9 -15.9,-37.8 -4,-17.9 -5.1,-37.3 -3.3,-58.1 1.8,-20.8 11,-40.4 27.4,-58.6 16.4,-18.3 39.3,-29.6 68.5,-34 -15.4,15.4 -25.4,30.5 -30.1,45.5 -4.7,15 -5.3,28.8 -1.7,41.6 3.6,12.8 9.3,25.8 17,38.9 7.7,13.1 16.3,26.1 25.8,38.9 9.5,12.8 18.2,25.8 26.3,38.9 8.1,13.1 13.4,27 15.9,41.6 2.5,14.6 1.6,29.6 -2.7,45 -4.3,15.4 -14.9,32.5 -31.8,51.5 -16.9,19 -39.9,38.4 -69.2,58.1 z m -132.6,0 c 14.6,-19 25,-36.7 31.2,-53.2 6.2,-16.4 8.9,-30 8.2,-40.5 -0.7,-10.6 -3.7,-20.6 -8.8,-30.1 -5.1,-9.5 -10.6,-16.6 -16.4,-21.4 -5.9,-4.8 -12.8,-9.9 -20.8,-15.3 -8,-5.4 -13.1,-9.3 -15.3,-11.5 -5.8,-5.8 -10.2,-16.1 -13.2,-30.7 -2.9,-14.6 -3.7,-30.5 -2.2,-47.7 1.5,-17.2 8.8,-33.1 21.9,-47.7 13.1,-14.6 31.8,-24.1 55.9,-28.5 -13.1,13.9 -21.5,27.8 -25.2,41.7 -3.7,13.9 -2.9,26.5 2.2,37.8 5.1,11.3 11.3,23.2 18.7,35.6 7.3,12.4 15.5,24.3 24.7,35.6 9.1,11.3 15.9,23.6 20.3,36.7 4.4,13.1 5.7,26.5 3.8,40 -1.8,13.5 -9.7,28.9 -23.6,46 -13.9,17.2 -34.4,34.9 -61.4,53.2 z m 435.2,579.9 H 62.183101 c -13.9,0 -25.2,-2 -34,-6 -8.8,-4 -15,-8.6 -18.7000001,-13.7 -3.7,-5.1 -6.2,-11.1 -7.7,-18.1 -1.49999997,-7 -1.99999997,-11.7 -1.69999997,-14.2 0.4,-2.5 0.6,-4.5 0.6,-6 H 841.4831 v 2.2 c 0,1.5 -0.2,3.3 -0.5,5.5 -0.4,2.2 -0.6,4.7 -0.6,7.7 0,2.9 -0.7,5.9 -2.2,8.8 l -4.4,11 c -1.5,2.9 -3.7,5.8 -6.6,8.8 -2.9,3 -6,5.5 -9.3,7.7 -3.3,2.2 -7.5,3.8 -12.6,4.9 -5,0.8 -10.9,1.4 -17.4,1.4 z"
   id="path4" />
</svg>
