<?xml version="1.0" encoding="UTF-8" standalone="no"?>
<!-- Svg Vector Icons : http://www.onlinewebfonts.com/icon -->

<svg
   version="1.1"
   x="0px"
   y="0px"
   viewBox="0 0 5252.6304 9800"
   enable-background="new 0 0 1000 1000"
   xml:space="preserve"
   id="svg10"
   sodipodi:docname="ice_cream.svg"
   width="5252.6304"
   height="9800"
   inkscape:version="1.1 (c68e22c387, 2021-05-23)"
   xmlns:inkscape="http://www.inkscape.org/namespaces/inkscape"
   xmlns:sodipodi="http://sodipodi.sourceforge.net/DTD/sodipodi-0.dtd"
   xmlns="http://www.w3.org/2000/svg"
   xmlns:svg="http://www.w3.org/2000/svg"><defs
   id="defs14" /><sodipodi:namedview
   id="namedview12"
   pagecolor="#505050"
   bordercolor="#eeeeee"
   borderopacity="1"
   inkscape:pageshadow="0"
   inkscape:pageopacity="0"
   inkscape:pagecheckerboard="0"
   showgrid="false"
   fit-margin-top="0"
   fit-margin-left="0"
   fit-margin-right="0"
   fit-margin-bottom="0"
   inkscape:zoom="0.08"
   inkscape:cx="3250"
   inkscape:cy="4481.25"
   inkscape:window-width="2880"
   inkscape:window-height="1541"
   inkscape:window-x="2869"
   inkscape:window-y="-11"
   inkscape:window-maximized="1"
   inkscape:current-layer="svg10" />
<metadata
   id="metadata2"> Svg Vector Icons : http://www.onlinewebfonts.com/icon </metadata>
<path
   d="m 2855.5,81.2 c 74.6,77.9 74.6,87.6 32.5,305 -48.7,253.1 -29.2,405.6 81.1,616.6 120.1,236.9 191.5,285.6 464,301.8 305,22.7 499.7,133 642.5,376.4 149.3,246.6 168.7,499.8 64.9,752.9 -16.2,35.7 9.7,61.7 87.6,90.9 165.5,58.4 373.2,253.1 470.5,441.3 116.8,220.7 123.3,613.3 16.2,814.5 l -68.1,133.1 146,77.9 c 188.3,100.5 350.5,291.9 418.7,493.1 68.2,204.4 48.7,545.2 -35.7,723.6 -90.9,188.2 -318,395.9 -509.5,460.8 -103.8,38.9 -175.2,87.6 -204.4,139.5 -22.7,45.4 -395.9,928.1 -827.5,1963.3 -431.6,1035.2 -817.8,1914.6 -853.4,1953.5 -35.7,42.2 -103.9,74.6 -152.5,74.6 -48.6,0 -116.8,-32.5 -152.5,-74.6 -35.7,-39 -421.9,-918.3 -853.4,-1953.5 C 1190.9,6736.7 817.7,5850.8 791.8,5805.4 765.8,5753.5 704.2,5708 623.1,5685.3 275.9,5581.5 0,5198.5 0,4818.9 0,4449 168.8,4147.2 464,3991.4 l 142.8,-77.9 -68.2,-146 C 434.8,3540.3 444.5,3183.4 558.1,2966 671.7,2748.6 879.3,2570.1 1126,2482.5 c 3.2,-3.3 -16.2,-74.6 -42.2,-162.3 -123.3,-405.6 139.5,-882.7 545.2,-989.7 113.6,-32.5 123.3,-45.4 123.3,-149.3 0,-142.8 107.1,-467.3 207.7,-623 C 2128.8,292.1 2514.9,0 2696.6,0 c 45.3,0.1 116.7,35.8 158.9,81.2 z m -600.4,941.1 c -39,120.1 -48.7,214.2 -35.7,360.2 16.2,168.7 9.7,210.9 -45.4,279.1 -51.9,68.1 -97.4,84.4 -262.8,97.4 -175.2,13 -214.2,25.9 -292.1,116.8 -191.5,214.2 -90.9,496.5 197.9,561.4 188.2,42.2 259.6,110.3 259.6,243.4 0,74.6 -22.7,123.3 -84.4,172 -74.6,58.4 -133.1,68.1 -415.4,68.1 -395.9,0 -506.3,51.9 -606.8,279.1 -71.4,159 -61.7,282.3 29.2,441.3 61.7,103.8 259.6,220.7 382.9,220.7 201.2,0 314.7,249.9 175.2,389.4 -55.2,55.2 -107.1,64.9 -382.9,64.9 -266.1,0 -340.7,13 -460.8,71.4 -334.2,172 -344,577.6 -22.7,817.8 90.8,68.1 116.8,68.1 1930.8,68.1 1726.4,0 1846.4,-3.2 1937.3,-58.4 146,-90.9 220.7,-210.9 233.6,-376.4 19.5,-204.4 -68.1,-353.7 -249.9,-451.1 -139.5,-68.1 -168.8,-71.4 -1187.7,-71.4 H 2306.9 l -64.9,-84.4 c -87.6,-113.6 -84.4,-191.5 13,-288.8 l 77.9,-81.1 h 814.5 c 947.6,0 1009.2,-16.2 1132.5,-269.3 84.4,-172 84.4,-227.1 3.3,-402.4 -97.4,-217.4 -214.2,-269.3 -603.6,-269.3 -282.3,0 -340.7,-9.7 -415.4,-68.1 -61.7,-48.7 -84.4,-97.4 -84.4,-172 0,-133 71.4,-201.2 259.6,-243.4 194.7,-42.2 292.1,-155.8 292.1,-340.7 0,-110.3 -19.5,-155.8 -97.4,-230.4 -87.6,-84.4 -126.5,-94.1 -373.2,-110.3 -269.3,-19.5 -275.8,-19.5 -425.1,-165.5 -223.9,-220.7 -350.4,-444.6 -418.6,-759.3 -19.5,-87.6 -22.7,-90.9 -61.6,-32.5 -25.8,32.2 -68,132.8 -100.5,223.7 z M 1297.9,5773 c 0,16.2 22.7,81.1 48.7,146 l 48.7,116.8 h 921.6 924.8 l 64.9,84.4 c 84.4,110.4 84.4,175.2 0,282.3 l -64.9,87.6 -821,6.5 -824.2,9.7 506.2,1207.2 c 279.1,665.2 516,1210.4 525.7,1210.4 19.5,0 1330.5,-3112 1330.5,-3157.4 0,-13 -600.3,-22.7 -1330.5,-22.7 -743.2,0 -1330.5,13 -1330.5,29.2 z"
   id="path4" />
</svg>
