<?xml version="1.0" encoding="UTF-8" standalone="no"?>
<!-- Generator: Adobe Illustrator 19.0.0, SVG Export Plug-In . SVG Version: 6.00 Build 0)  -->

<svg
   version="1.1"
   id="Layer_1"
   x="0px"
   y="0px"
   viewBox="0 0 439.29999 512"
   xml:space="preserve"
   sodipodi:docname="library.svg"
   width="439.29999"
   height="512"
   inkscape:version="1.1 (c68e22c387, 2021-05-23)"
   xmlns:inkscape="http://www.inkscape.org/namespaces/inkscape"
   xmlns:sodipodi="http://sodipodi.sourceforge.net/DTD/sodipodi-0.dtd"
   xmlns="http://www.w3.org/2000/svg"
   xmlns:svg="http://www.w3.org/2000/svg"><defs
   id="defs59" /><sodipodi:namedview
   id="namedview57"
   pagecolor="#505050"
   bordercolor="#eeeeee"
   borderopacity="1"
   inkscape:pageshadow="0"
   inkscape:pageopacity="0"
   inkscape:pagecheckerboard="0"
   showgrid="false"
   fit-margin-top="0"
   fit-margin-left="0"
   fit-margin-right="0"
   fit-margin-bottom="0"
   inkscape:zoom="1.5546875"
   inkscape:cx="219.33668"
   inkscape:cy="256"
   inkscape:window-width="1920"
   inkscape:window-height="1000"
   inkscape:window-x="-11"
   inkscape:window-y="-11"
   inkscape:window-maximized="1"
   inkscape:current-layer="Layer_1" />



<path
   id="rect20"
   d="m 269.90929,79.789173 39.59708,-7.645999 5.91723,30.644116 -39.59708,7.646 z M 154.267,63.456001 l 41.61001,10e-7 10e-6,31.207999 -41.61002,10e-7 z m -106.116999,0 h 41.610003 l -10e-7,31.208 -41.610003,10e-7 z M 342.17601,0.36299921 243.411,20.128 V 2.1635999e-7 L 137.308,0 106.1,7.3289999e-7 6.2880001e-7,6.6899986e-8 0,509.726 H 106.101 137.309 243.41 V 189.881 L 307.871,512 439.3,485.699 Z M 106.101,478.518 H 31.207001 l -1e-6,-23.232 H 106.1 v 23.232 z m 0,-54.44 H 31.207001 V 31.208001 H 106.1 V 424.078 Z m 106.101,54.44 h -74.893 v -23.232 h 74.893 z m 0.001,-54.44 H 137.31 V 31.208001 h 74.348 l 0.54501,2.725997 z M 247.473,51.140002 317.7,37.086 392.021,408.47 321.878,422.948 Z m 80.528,402.411008 70.143,-14.47801 4.433,22.15 -70.229,14.054 z"
   style="display:inline;stroke-width:1.00004" />















</svg>
