<?xml version="1.0" encoding="UTF-8" standalone="no"?>
<!-- Created with Inkscape (http://www.inkscape.org/) -->

<svg
   width="164.79808mm"
   height="151.36246mm"
   viewBox="0 0 164.79808 151.36246"
   version="1.1"
   id="svg975"
   inkscape:version="1.1 (c68e22c387, 2021-05-23)"
   sodipodi:docname="toilets.svg"
   xmlns:inkscape="http://www.inkscape.org/namespaces/inkscape"
   xmlns:sodipodi="http://sodipodi.sourceforge.net/DTD/sodipodi-0.dtd"
   xmlns="http://www.w3.org/2000/svg"
   xmlns:svg="http://www.w3.org/2000/svg">
  <sodipodi:namedview
     id="namedview977"
     pagecolor="#505050"
     bordercolor="#eeeeee"
     borderopacity="1"
     inkscape:pageshadow="0"
     inkscape:pageopacity="0"
     inkscape:pagecheckerboard="0"
     inkscape:document-units="mm"
     showgrid="false"
     fit-margin-top="0"
     fit-margin-left="0"
     fit-margin-right="0"
     fit-margin-bottom="0"
     inkscape:zoom="0.70911897"
     inkscape:cx="476.64781"
     inkscape:cy="789.00724"
     inkscape:window-width="2880"
     inkscape:window-height="1541"
     inkscape:window-x="2869"
     inkscape:window-y="-11"
     inkscape:window-maximized="1"
     inkscape:current-layer="layer1" />
  <defs
     id="defs972" />
  <g
     inkscape:label="Calque 1"
     inkscape:groupmode="layer"
     id="layer1"
     transform="translate(21.208096,60.383491)">
    <path
       id="rect10"
       d="m 57.927574,-58.876556 c 4.674021,0 9.348041,0 14.022062,0 0,49.6393616 0,99.278724 0,148.918086 -4.674021,0 -9.348041,0 -14.022062,0 0,-49.639362 0,-99.2787244 0,-148.918086 z m 43.578086,26.524986 c -9.855165,-0.316142 -16.709286,9.781561 -15.536007,18.972059 0.06761,12.170595 -0.136517,24.35207 0.104402,36.515725 1.376968,7.452095 12.678129,3.858408 10.505559,-3.087042 0,-11.0251901 0,-22.0503827 0,-33.075573 4.050446,-1.231971 2.300075,3.3368802 2.652479,5.802953 0.08628,30.73419 -0.173045,61.481154 0.130519,92.207314 1.503608,9.611368 16.426538,5.501093 13.889778,-3.548803 0,-18.098473 0,-36.196944 0,-54.295418 3.8465,-1.154334 1.75571,3.628626 2.27356,5.802953 0.12558,17.328898 -0.25318,34.686015 0.19297,51.996974 1.78619,9.495449 16.75902,5.797402 14.20624,-3.504509 0,-31.487155 0,-62.974309 0,-94.461464 4.05045,-1.231974 2.30009,3.3368723 2.65249,5.802953 0.0639,10.1220507 -0.12846,20.253581 0.0971,30.369652 1.33061,7.524896 12.66521,3.846225 10.51281,-3.097032 -0.0639,-12.5397841 0.12945,-25.088019 -0.0997,-37.622374 -0.73815,-9.302316 -9.88276,-16.019393 -18.9399,-14.778368 -7.54745,0 -15.0949,0 -22.64235,0 z m 25.38803,-15.725402 c 0.78365,15.894397 -25.41382,15.894394 -24.63017,0 0.40304,-16.912002 24.70395,-15.538069 24.63017,0 z M 12.079006,42.29664 c -0.09205,14.726364 0.185557,29.471789 -0.141412,44.186038 -1.591347,7.702664 -13.7360511,4.297616 -11.60531632,-3.152987 0,-13.677683 0,-27.355368 0,-41.033051 -5.05235578,0 -10.10471118,0 -15.15706668,0 5.4312814,-19.072553 10.8625631,-38.1451056 16.2938447,-57.217658 -3.7065558,-1.183003 -3.2315522,3.204231 -4.2723437,5.5722806 -2.8450958,9.39829618 -5.2798765,18.943788 -8.383752,28.2492474 -3.777664,7.051839 -13.033424,-0.356923 -8.806897,-6.354019 3.618146,-11.71071756 6.899345,-23.537489 10.7343472,-35.173512 3.1042125,-7.188399 11.0680591,-10.559862 18.5353431,-9.724549 7.8794637,0.47235 16.9802017,-1.895667 23.2859547,4.254524 6.095069,5.591312 6.547602,14.292305 9.280816,21.6457977 2.127417,7.37327855 4.602337,14.6605649 6.504236,22.0896463 1.212668,7.861311 -10.729936,7.892151 -10.620221,0.313569 -2.991585,-10.2909953 -5.983168,-20.5819904 -8.974751,-30.872985 -4.4509,-1.241505 -2.191208,2.55126 -1.532877,5.1426872 5.058082,17.3583254 10.116161,34.7166478 15.174243,52.0749708 -5.178668,0 -10.357334,0 -15.536002,0 -0.07043,14.727182 0.141967,29.46554 -0.108183,44.18562 -1.460937,7.72637 -13.489953,4.196948 -11.259622,-3.152569 0,-13.677683 0,-27.355368 0,-41.033051 -1.136779,0 -2.273562,0 -3.410341,0 z m 14.020252,-90.373612 c 0.783645,15.894394 -25.41382031,15.894394 -24.6301748,0 0.403047,-16.912002 24.7039538,-15.538069 24.6301748,0 z"
       style="fill:#000000;fill-opacity:1;stroke:#000000;stroke-width:0.264583;stroke-opacity:1" />
  </g>
</svg>
