<?xml version="1.0" encoding="UTF-8" standalone="no"?>
<!-- Generator: Adobe Illustrator 18.1.1, SVG Export Plug-In . SVG Version: 6.00 Build 0)  -->

<svg
   version="1.1"
   id="Capa_1"
   x="0px"
   y="0px"
   viewBox="0 0 16 31.999626"
   xml:space="preserve"
   sodipodi:docname="unknown.svg"
   width="16"
   height="31.999626"
   inkscape:version="1.1 (c68e22c387, 2021-05-23)"
   xmlns:inkscape="http://www.inkscape.org/namespaces/inkscape"
   xmlns:sodipodi="http://sodipodi.sourceforge.net/DTD/sodipodi-0.dtd"
   xmlns="http://www.w3.org/2000/svg"
   xmlns:svg="http://www.w3.org/2000/svg"><defs
   id="defs44" /><sodipodi:namedview
   id="namedview42"
   pagecolor="#505050"
   bordercolor="#eeeeee"
   borderopacity="1"
   inkscape:pageshadow="0"
   inkscape:pageopacity="0"
   inkscape:pagecheckerboard="0"
   showgrid="false"
   fit-margin-top="0"
   fit-margin-left="0"
   fit-margin-right="0"
   fit-margin-bottom="0"
   inkscape:zoom="24.875"
   inkscape:cx="0"
   inkscape:cy="15.979899"
   inkscape:window-width="2880"
   inkscape:window-height="1541"
   inkscape:window-x="2869"
   inkscape:window-y="-11"
   inkscape:window-maximized="1"
   inkscape:current-layer="Capa_1" />
<path
   id="path2"
   style="fill:#030104"
   d="m 9.6,29.999626 c 0,1.102 -0.895,2 -2,2 -1.105,0 -2,-0.898 -2,-2 0,-1.109 0.895,-2 2,-2 1.105,0 2,0.891 2,2 z m -1.924,-4.023 c -1.336,0 -2.59,-0.523 -3.535,-1.469 -0.945,-1.105 -1.465,-2.359 -1.465,-3.695 0,-1.336 0.52,-2.59 1.465,-3.371 l 6.688,-6.688 C 11.584,9.9956258 12,8.9916258 12,7.9256258 c 0,-1.07 -0.416,-2.074 -1.172,-2.828 -1.559,-1.559 -4.096,-1.562 -5.654,0 -0.758,0.754 -1.174,1.757 -1.174,2.828 H 0 c 0,-2.137 0.834,-4.148 2.348,-5.66 3.02,-3.02300004 8.285,-3.02000004 11.309,0.004 1.511,1.507 2.343,3.515 2.343,5.656 0,2.1370002 -0.832,4.1450002 -2.344,5.6560002 l -6.688,6.523 c -0.389,0.391 -0.389,1.023 0,1.414 0.391,0.391 1.023,0.391 1.414,0 0.254,-0.258 0.293,-0.555 0.293,-0.711 h 4 c 0,1.336 -0.52,2.594 -1.465,3.699 -0.944,0.946 -2.198,1.47 -3.534,1.47 z" />















</svg>
