<?xml version="1.0" encoding="UTF-8" standalone="no"?>
<!-- Generator: Adobe Illustrator 17.1.0, SVG Export Plug-In . SVG Version: 6.00 Build 0)  -->

<svg
   version="1.1"
   id="Capa_1"
   x="0px"
   y="0px"
   viewBox="0 0 185.94997 197.4418"
   xml:space="preserve"
   sodipodi:docname="cinema.svg"
   width="185.94997"
   height="197.4418"
   inkscape:version="1.1 (c68e22c387, 2021-05-23)"
   xmlns:inkscape="http://www.inkscape.org/namespaces/inkscape"
   xmlns:sodipodi="http://sodipodi.sourceforge.net/DTD/sodipodi-0.dtd"
   xmlns="http://www.w3.org/2000/svg"
   xmlns:svg="http://www.w3.org/2000/svg"><defs
   id="defs37" /><sodipodi:namedview
   id="namedview35"
   pagecolor="#505050"
   bordercolor="#eeeeee"
   borderopacity="1"
   inkscape:pageshadow="0"
   inkscape:pageopacity="0"
   inkscape:pagecheckerboard="0"
   showgrid="false"
   fit-margin-top="0"
   fit-margin-left="0"
   fit-margin-right="0"
   fit-margin-bottom="0"
   inkscape:zoom="4.0315637"
   inkscape:cx="93.016018"
   inkscape:cy="98.596979"
   inkscape:window-width="2880"
   inkscape:window-height="1541"
   inkscape:window-x="2869"
   inkscape:window-y="-11"
   inkscape:window-maximized="1"
   inkscape:current-layer="Capa_1" />
<path
   d="m 180.94997,83.901803 h -145.921 l 136.473,-49.707 c 1.246,-0.454 2.261,-1.384 2.821,-2.586 0.56,-1.202 0.62,-2.577 0.166,-3.823 l -8.923,-24.4970001 c -0.945,-2.59600001 -3.815,-3.92800001 -6.409,-2.98700001 L 3.2889698,57.073803 c -1.246,0.454 -2.26,1.384 -2.82099996,2.586 -0.56,1.202 -0.62,2.577 -0.166,3.823 l 8.92199996,24.496 c 0.159,0.436 0.381,0.828 0.638,1.188 V 192.4418 c 0,2.762 2.2390002,5 5.0000002,5 h 166.088 c 2.762,0 5,-2.238 5,-5 v -77.469 -26.070997 c 0,-2.762 -2.238,-5 -5,-5 z m -20.573,-65.64 3.005,8.248 -4.662,1.698 z m -37.251,5.806 19.34,-7.044 -3.034,18.209 -19.34,7.044 z m -38.627,14.069 19.339,-7.044 -3.034,18.209 -19.339,7.044 z m -38.628,14.07 19.339,-7.044 -3.034,18.208 -19.338,7.044 z m -19.289,7.026 -3.034,18.208 -6.638,2.418 -5.5,-15.1 z m 0.548,50.739997 h -7.065 V 93.901803 h 16.148 z m 41.11,0 h -20.581 l 9.083,-16.070997 h 20.582 z m 41.111,0 h -20.582 l 9.082,-16.070997 h 20.583 z m 41.111,0 h -20.583 l 9.083,-16.070997 h 20.583 z m 25.488,0 h -4.961 l 4.961,-8.778 z"
   id="path2" />















</svg>
