<?xml version="1.0" encoding="UTF-8" standalone="no"?>
<!-- Generator: Adobe Illustrator 17.1.0, SVG Export Plug-In . SVG Version: 6.00 Build 0)  -->

<svg
   version="1.1"
   id="Capa_1"
   x="0px"
   y="0px"
   viewBox="0 0 446.08 476.8"
   xml:space="preserve"
   sodipodi:docname="coconut.svg"
   width="446.07999"
   height="476.79999"
   inkscape:version="1.1 (c68e22c387, 2021-05-23)"
   xmlns:inkscape="http://www.inkscape.org/namespaces/inkscape"
   xmlns:sodipodi="http://sodipodi.sourceforge.net/DTD/sodipodi-0.dtd"
   xmlns="http://www.w3.org/2000/svg"
   xmlns:svg="http://www.w3.org/2000/svg"><defs
   id="defs37" /><sodipodi:namedview
   id="namedview35"
   pagecolor="#505050"
   bordercolor="#eeeeee"
   borderopacity="1"
   inkscape:pageshadow="0"
   inkscape:pageopacity="0"
   inkscape:pagecheckerboard="0"
   showgrid="false"
   fit-margin-top="0"
   fit-margin-left="0"
   fit-margin-right="0"
   fit-margin-bottom="0"
   inkscape:zoom="1.6694631"
   inkscape:cx="222.82612"
   inkscape:cy="238.1005"
   inkscape:window-width="2880"
   inkscape:window-height="1541"
   inkscape:window-x="2869"
   inkscape:window-y="-11"
   inkscape:window-maximized="1"
   inkscape:current-layer="Capa_1" />
<path
   d="m 400.824,119.057 c -0.207,-0.272 -0.431,-0.521 -0.664,-0.76 -4.518,-5.716 -10.267,-11.187 -17.209,-16.322 C 366.78,90.011 344.429,80.039 318.04,72.966 V 48.6 c 0,-3.86 3.14,-7 7,-7 h 62.4 c 4.418,0 8,-3.582 8,-8 V 8 c 0,-4.418 -3.582,-8 -8,-8 h -66.96 c -24.262,0 -44,19.738 -44,44 v 20.749 c -17.273,-2.331 -35.2,-3.524 -53.44,-3.524 -78.548,0 -144.484,21.455 -173.434,52.869 -0.669,0.452 -1.283,1.011 -1.81,1.679 C 16.528,155.431 0,203.146 0,253.76 0,313.336 23.2,369.346 65.327,411.473 107.453,453.6 163.464,476.8 223.04,476.8 c 59.576,0 115.586,-23.2 157.713,-65.327 42.127,-42.127 65.327,-98.137 65.327,-157.713 0,-49.106 -15.649,-95.686 -45.256,-134.703 z m -82.784,20.918 c 2.299,3.08 3.895,6.573 3.895,10.345 0,3.425 -1.348,6.922 -3.895,10.35 z M 320.48,16 h 58.96 v 9.6 h -54.4 c -12.682,0 -23,10.318 -23,23 v 124.942 c -2.905,1.596 -6.1,3.12 -9.56,4.554 V 111.23 c 0,-0.026 0,-0.051 0,-0.077 V 44 c 0,-15.439 12.56,-28 28,-28 z m -97.44,174.16 c -58.28,0 -98.895,-20.996 -98.895,-39.84 0,-18.844 40.615,-39.84 98.895,-39.84 19.079,0 37.414,2.307 53.44,6.685 v 66.344 c -15.033,4.108 -33.166,6.651 -53.44,6.651 z m 57.2,262.598 c 2.82,-2.534 5.589,-5.255 8.296,-8.173 18.274,-19.697 33.488,-47.668 43.998,-80.891 1.333,-4.213 -1.002,-8.708 -5.214,-10.041 -4.215,-1.333 -8.708,1.003 -10.041,5.214 -19.89,62.874 -56,101.932 -94.239,101.932 -38.239,0 -74.349,-39.058 -94.239,-101.932 -1.333,-4.212 -5.828,-6.546 -10.041,-5.214 -4.212,1.333 -6.547,5.828 -5.214,10.041 10.51,33.223 25.724,61.194 43.998,80.891 2.708,2.918 5.477,5.639 8.296,8.173 C 79.41,427.877 16,348.087 16,253.76 c 0,-31.445 6.881,-61.679 20.126,-89.275 14.013,42.997 91.081,74.93 186.914,74.93 37.566,0 73.788,-5.026 104.75,-14.535 4.224,-1.297 6.596,-5.772 5.299,-9.996 -1.297,-4.225 -5.778,-6.596 -9.996,-5.299 -29.459,9.047 -64.057,13.83 -100.052,13.83 -47.298,0 -91.642,-8.188 -124.86,-23.054 C 67.459,186.612 49.84,168.373 49.84,150.32 c 0,-18.053 17.619,-36.292 48.34,-50.041 33.218,-14.867 77.562,-23.054 124.86,-23.054 18.281,0 36.222,1.236 53.44,3.667 v 19.741 c -16.347,-4.037 -34.598,-6.153 -53.44,-6.153 -29.654,0 -57.659,5.224 -78.854,14.71 -23.241,10.401 -36.041,25.008 -36.041,41.13 0,16.122 12.799,30.729 36.041,41.13 21.195,9.486 49.2,14.71 78.854,14.71 23.004,0 44.999,-3.156 63.609,-8.995 0.157,-0.044 0.311,-0.094 0.464,-0.147 5.209,-1.652 10.165,-3.503 14.782,-5.569 23.241,-10.401 36.041,-25.008 36.041,-41.13 0,-8.414 -3.572,-20.565 -19.895,-32.083 V 89.562 c 47.844,13.654 78.2,36.991 78.2,60.758 0,15.896 -13.184,28.638 -24.243,36.527 -3.597,2.565 -4.433,7.562 -1.867,11.159 1.561,2.188 4.021,3.354 6.52,3.354 1.607,0 3.23,-0.483 4.639,-1.488 14.835,-10.582 24.539,-22.61 28.671,-35.353 13.242,27.62 20.12,57.874 20.12,89.24 -0.001,94.328 -63.411,174.118 -149.841,198.999 z"
   id="path2" />
<g
   id="g4"
   transform="translate(-15.36)">
</g>
<g
   id="g6"
   transform="translate(-15.36)">
</g>
<g
   id="g8"
   transform="translate(-15.36)">
</g>
<g
   id="g10"
   transform="translate(-15.36)">
</g>
<g
   id="g12"
   transform="translate(-15.36)">
</g>
<g
   id="g14"
   transform="translate(-15.36)">
</g>
<g
   id="g16"
   transform="translate(-15.36)">
</g>
<g
   id="g18"
   transform="translate(-15.36)">
</g>
<g
   id="g20"
   transform="translate(-15.36)">
</g>
<g
   id="g22"
   transform="translate(-15.36)">
</g>
<g
   id="g24"
   transform="translate(-15.36)">
</g>
<g
   id="g26"
   transform="translate(-15.36)">
</g>
<g
   id="g28"
   transform="translate(-15.36)">
</g>
<g
   id="g30"
   transform="translate(-15.36)">
</g>
<g
   id="g32"
   transform="translate(-15.36)">
</g>
</svg>
