<?xml version="1.0" encoding="UTF-8" standalone="no"?>
<!-- Generator: Adobe Illustrator 17.1.0, SVG Export Plug-In . SVG Version: 6.00 Build 0)  -->

<svg
   version="1.1"
   id="Capa_1"
   x="0px"
   y="0px"
   viewBox="0 0 164.481 201.32499"
   xml:space="preserve"
   sodipodi:docname="doctors.svg"
   width="164.481"
   height="201.325"
   inkscape:version="1.1 (c68e22c387, 2021-05-23)"
   xmlns:inkscape="http://www.inkscape.org/namespaces/inkscape"
   xmlns:sodipodi="http://sodipodi.sourceforge.net/DTD/sodipodi-0.dtd"
   xmlns="http://www.w3.org/2000/svg"
   xmlns:svg="http://www.w3.org/2000/svg"><defs
   id="defs41" /><sodipodi:namedview
   id="namedview39"
   pagecolor="#505050"
   bordercolor="#eeeeee"
   borderopacity="1"
   inkscape:pageshadow="0"
   inkscape:pageopacity="0"
   inkscape:pagecheckerboard="0"
   showgrid="false"
   fit-margin-top="0"
   fit-margin-left="0"
   fit-margin-right="0"
   fit-margin-bottom="0"
   inkscape:zoom="3.9538256"
   inkscape:cx="82.198871"
   inkscape:cy="101.16784"
   inkscape:window-width="2880"
   inkscape:window-height="1541"
   inkscape:window-x="2869"
   inkscape:window-y="-11"
   inkscape:window-maximized="1"
   inkscape:current-layer="Capa_1" />
<path
   id="circle2"
   d="M 77.173828 0 A 10.083 10.083 0 0 0 68.320312 5.3125 C 59.525464 6.3832034 51.832212 11.414765 47.306641 19.253906 C 42.183641 28.127906 42.183641 38.722703 47.306641 47.595703 L 79.427734 103.23047 C 83.699734 110.62947 90.793656 115.52903 98.972656 116.95703 L 98.972656 143.78906 C 98.972656 170.00006 83.499469 191.32422 64.480469 191.32422 C 45.461469 191.32422 29.990234 170.00006 29.990234 143.78906 L 29.990234 111.8418 C 41.380234 109.5198 49.978516 99.423469 49.978516 87.355469 C 49.978516 73.576469 38.767281 62.367187 24.988281 62.367188 C 11.209281 62.367188 -2.3684758e-15 73.576469 0 87.355469 C 0 99.422469 8.5972813 109.5188 19.988281 111.8418 L 19.988281 143.78906 C 19.988281 175.51406 39.947469 201.32422 64.480469 201.32422 C 89.012469 201.32422 108.97266 175.51406 108.97266 143.78906 L 108.97266 116.95703 C 117.15066 115.52903 124.24462 110.62947 128.51562 103.23047 L 160.63867 47.595703 C 165.76267 38.722703 165.76267 28.126906 160.63867 19.253906 C 156.08703 11.370499 148.33074 6.3334735 139.47266 5.3027344 A 10.083 10.083 0 0 0 130.5957 0 A 10.083 10.083 0 0 0 120.51367 10.082031 A 10.083 10.083 0 0 0 130.5957 20.166016 A 10.083 10.083 0 0 0 139.16992 15.365234 C 144.52742 16.254267 149.18671 19.419602 151.97852 24.253906 C 155.29452 29.996906 155.29352 36.852703 151.97852 42.595703 L 119.85742 98.232422 C 116.54242 103.97442 110.60366 107.40134 103.97266 107.40234 C 97.341656 107.40234 91.403891 103.97542 88.087891 98.232422 L 55.966797 42.595703 C 52.651797 36.853703 52.651797 29.995906 55.966797 24.253906 C 58.72978 19.46807 63.327128 16.322526 68.617188 15.396484 A 10.083 10.083 0 0 0 77.173828 20.166016 A 10.083 10.083 0 0 0 87.257812 10.082031 A 10.083 10.083 0 0 0 77.173828 0 z " />

















</svg>
