<?xml version="1.0" encoding="UTF-8" standalone="no"?>
<!-- Generator: Adobe Illustrator 19.0.0, SVG Export Plug-In . SVG Version: 6.00 Build 0)  -->

<svg
   version="1.1"
   id="Capa_1"
   x="0px"
   y="0px"
   viewBox="0 0 485.90001 489.8"
   xml:space="preserve"
   sodipodi:docname="fast_food.svg"
   width="485.89999"
   height="489.79999"
   inkscape:version="1.1 (c68e22c387, 2021-05-23)"
   xmlns:inkscape="http://www.inkscape.org/namespaces/inkscape"
   xmlns:sodipodi="http://sodipodi.sourceforge.net/DTD/sodipodi-0.dtd"
   xmlns="http://www.w3.org/2000/svg"
   xmlns:svg="http://www.w3.org/2000/svg"><defs
   id="defs51" /><sodipodi:namedview
   id="namedview49"
   pagecolor="#505050"
   bordercolor="#eeeeee"
   borderopacity="1"
   inkscape:pageshadow="0"
   inkscape:pageopacity="0"
   inkscape:pagecheckerboard="0"
   showgrid="false"
   fit-margin-top="0"
   fit-margin-left="0"
   fit-margin-right="0"
   fit-margin-bottom="0"
   inkscape:zoom="1.6251532"
   inkscape:cx="243.05401"
   inkscape:cy="244.59233"
   inkscape:window-width="2880"
   inkscape:window-height="1541"
   inkscape:window-x="2869"
   inkscape:window-y="-11"
   inkscape:window-maximized="1"
   inkscape:current-layer="Capa_1" />
<path
   id="path10"
   d="m 150.4,396.1 h 26 c -15.9,-7 -26.8,-22.5 -26.8,-41.2 0,-19.4 12.4,-36.2 29.9,-42.4 h -29.2 v -19.8 c 0,-51.7 42,-93.7 93.7,-93.7 h 92.1 L 348.5,80.4 h -330 l 43.1,409.3 h 124.8 c -46.5,-36.8 -36,-93.6 -36,-93.6 z M 367.3,61.4 341.2,0 H 26.4 L 0,61.4 Z M 460.6,330 H 194.3 c -14,0 -25.3,11.3 -25.3,25.3 0,14 11.3,25.3 25.3,25.3 h 266.3 c 14,0 25.3,-11.3 25.3,-25.3 0,-14 -11.3,-25.3 -25.3,-25.3 z M 244.1,489.8 h 166.8 c 40.8,0 73.9,-33 73.9,-73.9 H 170.2 c 0,40.8 33.1,73.9 73.9,73.9 z M 170.2,293.1 v 0 h 314.5 v 0 c 0,-40.8 -33,-73.9 -73.9,-73.9 H 244.1 c -40.8,0 -73.9,33.1 -73.9,73.9 z" />















</svg>
