<?xml version="1.0" encoding="UTF-8" standalone="no"?>
<!-- Generator: Adobe Illustrator 13.0.2, SVG Export Plug-In . SVG Version: 6.00 Build 14948)  -->

<svg
   version="1.1"
   id="Layer_1"
   x="0px"
   y="0px"
   width="98.555"
   height="74.780998"
   viewBox="-0.258 -0.548 98.555003 74.780997"
   xml:space="preserve"
   sodipodi:docname="post_office.svg"
   inkscape:version="1.1 (c68e22c387, 2021-05-23)"
   xmlns:inkscape="http://www.inkscape.org/namespaces/inkscape"
   xmlns:sodipodi="http://sodipodi.sourceforge.net/DTD/sodipodi-0.dtd"
   xmlns="http://www.w3.org/2000/svg"
   xmlns:svg="http://www.w3.org/2000/svg"><defs
   id="defs13" /><sodipodi:namedview
   id="namedview11"
   pagecolor="#505050"
   bordercolor="#eeeeee"
   borderopacity="1"
   inkscape:pageshadow="0"
   inkscape:pageopacity="0"
   inkscape:pagecheckerboard="0"
   showgrid="false"
   fit-margin-top="0"
   fit-margin-left="0"
   fit-margin-right="0"
   fit-margin-bottom="0"
   inkscape:zoom="6.4433093"
   inkscape:cx="47.801523"
   inkscape:cy="37.48074"
   inkscape:window-width="2880"
   inkscape:window-height="1541"
   inkscape:window-x="2869"
   inkscape:window-y="-11"
   inkscape:window-maximized="1"
   inkscape:current-layer="Layer_1" />
<path
   style="display:inline;fill:#231f20"
   d="M 91.117,62.491 65.554,36.905 91.116,11.319 V 62.491 Z M 11.281,67.35 36.89,41.788 l 1.094,1.047 c 6.047,5.766 15.656,5.766 21.445,0 L 60.531,41.741 86.258,67.35 Z M 6.687,11.319 32.211,36.905 6.641,62.491 Z M 86.211,6.436 54.765,37.858 C 51.57,41.077 45.851,41.006 42.562,37.733 L 11.328,6.436 Z M -0.258,-0.548 c 0,2.93 0,71.828 0,74.781 2.977,0 95.578,0 98.555,0 0,-2.953 0,-71.852 0,-74.781 -2.977,0 -95.578,0 -98.555,0 z"
   id="path6" />
</svg>
