<?xml version="1.0" encoding="UTF-8" standalone="no"?>
<!-- Svg Vector Icons : http://www.onlinewebfonts.com/icon -->

<svg
   version="1.1"
   x="0px"
   y="0px"
   viewBox="0 0 980.20001 992"
   enable-background="new 0 0 1000 1000"
   xml:space="preserve"
   id="svg18"
   sodipodi:docname="social_facility.svg"
   inkscape:version="1.1 (c68e22c387, 2021-05-23)"
   width="980.20001"
   height="992"
   xmlns:inkscape="http://www.inkscape.org/namespaces/inkscape"
   xmlns:sodipodi="http://sodipodi.sourceforge.net/DTD/sodipodi-0.dtd"
   xmlns="http://www.w3.org/2000/svg"
   xmlns:svg="http://www.w3.org/2000/svg"><defs
   id="defs22" /><sodipodi:namedview
   id="namedview20"
   pagecolor="#505050"
   bordercolor="#eeeeee"
   borderopacity="1"
   inkscape:pageshadow="0"
   inkscape:pageopacity="0"
   inkscape:pagecheckerboard="0"
   showgrid="false"
   inkscape:zoom="0.796"
   inkscape:cx="489.94975"
   inkscape:cy="495.60302"
   inkscape:window-width="2880"
   inkscape:window-height="1541"
   inkscape:window-x="2869"
   inkscape:window-y="-11"
   inkscape:window-maximized="1"
   inkscape:current-layer="svg18"
   fit-margin-top="0"
   fit-margin-left="0"
   fit-margin-right="0"
   fit-margin-bottom="0" />
<metadata
   id="metadata2"> Svg Vector Icons : http://www.onlinewebfonts.com/icon </metadata>
<path
   id="path14"
   d="m 771,271.8 c -10.8,0 -72.2,0 -82.7,0 -0.4,0 -27.7,-2.5 -27.7,-2.5 L 626,148.6 C 612.1,100 571.3,101.5 571.3,101.5 H 459.2 c 0,0 -40.7,-1.5 -54.7,47.1 L 387.4,208 370.3,148.6 c -14,-48.6 -54.7,-47.1 -54.7,-47.1 h -86.7 c 0,0 -40.8,-1.5 -54.7,47.1 l -34.9,121.6 c -3.3,11.4 2.9,20 12.9,22.9 9.9,2.8 20.1,-2.2 22.7,-11.2 l 34,-118.6 h 16.6 l -49.6,205.3 h 43.9 v 145.8 c 0,12 9.7,21.8 21.7,21.8 12,0 21.8,-9.8 21.8,-21.8 V 368.6 h 18.4 v 145.8 c 0,12 9.7,21.8 21.7,21.8 12.1,0 21.9,-9.8 21.9,-21.8 V 368.6 h 43.1 L 319.3,163.3 h 16.5 l 33.6,117.3 c 0.6,2 1.5,3.8 2.6,5.4 3.3,5 9,7.7 15.4,7.5 6.4,0.2 12.1,-2.5 15.4,-7.4 1.4,-1.8 2.3,-3.8 2.9,-6.1 l 33.4,-116.6 h 15.3 c 0,0 0,326 0,346.9 0,14.2 11.6,25.6 25.7,25.6 14.2,0 25.6,-11.5 25.6,-25.6 0,-20.9 0,-197.4 0,-197.4 h 19 c 0,0 0,176.4 0,197.4 0,14.2 11.5,25.6 25.6,25.6 14.2,0 25.8,-11.5 25.8,-25.6 0,-20.9 0,-346.9 0,-346.9 h 16.6 L 625.3,282 c 1.8,5.8 6.6,9.7 12.5,11.2 0.3,0.1 0.4,0.2 0.6,0.2 5.2,1.2 29.1,8 46.7,13 0,32 0,201.8 0,215.1 0,9.9 8.1,18 18.1,18 9.9,0 18,-8.1 18,-18 0,-14.7 0,-107.5 0,-107.5 h 14.1 c 0,0 0,92.7 0,107.5 0,9.9 8.1,18 18,18 9.9,0 18.1,-8.1 18.1,-18 0,-14.7 0,-201 0,-201 h 13.7 c 0,0 0,59.5 0,68.1 0,7.5 6.1,13.5 13.4,13.5 7.4,0 13.3,-6 13.3,-13.5 0,-7.4 0,-66.4 0,-77.5 0,-21.7 -19.1,-39.3 -40.8,-39.3 z m -44.4,-15.1 c 16.9,0 30.6,-13.7 30.6,-30.7 0,-16.9 -13.7,-30.7 -30.6,-30.7 -17,0 -30.7,13.7 -30.7,30.7 0,17 13.7,30.7 30.7,30.7 z M 272.4,88 c -24.5,0 -44.3,-19.6 -44.3,-44 0,-24.3 19.8,-44 44.3,-44 24.5,0 44.4,19.7 44.4,44 0,24.4 -19.9,44 -44.4,44 z m 237.1,-0.2 c 24.2,0 43.7,-19.6 43.7,-43.7 0,-24.1 -19.6,-43.7 -43.7,-43.7 -24.1,0 -43.7,19.6 -43.7,43.7 0,24.1 19.5,43.7 43.7,43.7 z M 102.3,553.5 V 355.4 c 0,-28.1 -23,-51 -51.3,-51 -28.2,0 -51,22.9 -51,51 v 271.2 c 0,37.5 13.5,73.7 37.7,102 l 169.1,179.6 c 16.8,15.8 20.9,29.8 20.9,51 V 992 h 184.1 l 0.2,-77.8 c 0,-29.6 2.4,-69.2 -34.7,-108.1 L 162.9,590.6 c -7.6,-7.4 -17.7,-11.4 -28.3,-11.4 -22.4,0 -40.7,18.2 -40.7,40.6 0,9.7 3.4,19.1 9.7,26.5 l 103.5,110.9 c 6.7,7.9 18.1,22.7 23.7,40.8 3.1,9.4 3.9,18.6 4.1,29.2 h -33.3 c -0.1,-7.5 -0.7,-13.6 -2.5,-19.2 -3.2,-10.5 -9.7,-19.9 -14.6,-25.9 L 79.3,666.8 C 66.1,653.5 58.8,636.2 58.8,618.1 c 0.1,-27.2 16.4,-52.3 43.5,-64.6 z m 775.6,0 V 355.4 c 0,-28.1 23,-51 51.3,-51 28.2,0 51,22.9 51,51 v 271.2 c 0,37.5 -13.5,73.7 -37.7,102 L 773.3,908.3 c -16.8,15.8 -20.9,29.8 -20.9,51 V 992 H 568.3 l -0.2,-77.8 c 0,-29.6 -2.4,-69.2 34.7,-108.1 L 817.4,590.6 c 7.6,-7.4 17.7,-11.4 28.3,-11.4 22.4,0 40.7,18.2 40.7,40.6 0,9.7 -3.4,19.1 -9.7,26.5 L 773.2,757.2 c -6.7,7.9 -18.1,22.7 -23.7,40.8 -3,9.4 -3.9,18.6 -4.1,29.2 h 33.3 c 0.1,-7.5 0.7,-13.6 2.5,-19.2 3.3,-10.5 9.7,-19.9 14.6,-25.9 L 900.9,666.8 c 13.2,-13.3 20.5,-30.6 20.5,-48.7 0,-27.2 -16.4,-52.3 -43.5,-64.6 z" />
</svg>
