<?xml version="1.0" encoding="utf-8"?>
<!-- Svg Vector Icons : http://www.onlinewebfonts.com/icon -->
<!DOCTYPE svg PUBLIC "-//W3C//DTD SVG 1.1//EN" "http://www.w3.org/Graphics/SVG/1.1/DTD/svg11.dtd">
<svg version="1.1" xmlns="http://www.w3.org/2000/svg" xmlns:xlink="http://www.w3.org/1999/xlink" x="0px" y="0px" viewBox="0 0 1000 1000" enable-background="new 0 0 1000 1000" xml:space="preserve">
<metadata> Svg Vector Icons : http://www.onlinewebfonts.com/icon </metadata>
<g><path d="M500,10C229.8,10,10,229.8,10,500s219.8,490,490,490s490-219.8,490-490S770.2,10,500,10z M763.5,197.6c1.2,1,2.6,1.7,4.1,1.7c0.9,0,1.8-0.2,2.7-0.5c3.4-1.4,5-5.3,3.7-8.8c-1.9-5-4.9-10.3-7.8-15.5c0.3-0.1,0.7-0.1,1-0.1c0.4-0.1,0.8-0.2,1.2-0.4c9.4,18.2,13.9,27,16.1,32.5c0,0-0.1,0-0.1-0.1c-1.8-0.9-3.9-0.9-5.7-0.1c-1.8,0.8-3.2,2.4-3.7,4.3c-2.1-1.9-5-5.1-9.9-10.4c-0.6-0.6-1.3-1.1-2-1.5C763.3,198.3,763.4,197.9,763.5,197.6z M203.2,170.3c1.6,0.2,3.1-0.2,4.4-1c0.7-0.4,1.4-0.8,2.3-1c0.3,1.4,1,2.7,2.1,3.7c1,0.9,2.1,1.4,3.4,1.7c-0.5,0.6-1.1,1.2-1.7,1.9c-1.5,1.7-2,4-1.5,6.1c0.6,2.2,2.2,3.9,4.3,4.6l0.3,0.1c-60.6,55.3-88.4,80.6-102.9,95C137.3,240.3,167.3,202.7,203.2,170.3z M56.1,500c0-30.7,3.2-61.1,9.5-90.7c1.2,0.9,2.6,1.4,4.1,1.4h4.7c0.2,0,0.4,0,0.6,0c-2.4,9.6-4.5,18.2-6.3,26.8c-0.2,0.7-0.1,2.3,0,3c1.3,12.7,3.1,30,5.4,42.9c0.3,1.9,1.4,3.5,3,4.5c61,38.4,92.7,107.8,99,123c-18.6,30.5-25.2,55.3-19.9,75.7c5.9,22.8,25.2,34.6,40.5,43.1c1.5,6,3.2,12,4.9,17.9c0.3,1,0.8,2,1.6,2.7c0.4,0.4,38,39.3,73.8,51.6c11.4,53.2,42.3,94.2,91.9,121.8c0.1,0.1,0.3,0.3,0.4,0.4C184.7,867.8,56.1,697.7,56.1,500z M894.4,680.5c-2.7,9.5-5.8,19.2-9,28.4c-10.6,16.9-19.3,35-27.7,52.5l-1.1,2.6C773,876.6,639.6,943.9,500,943.9c-19.2,0-38.5-1.3-57.6-3.8c-0.2-1.1-0.8-2.1-1.6-3l-2.3-2.7c-0.6-0.7-1.4-1.3-2.2-1.8l-7.7-3.8c-5-7.4-4.9-7.7-3.8-12.9c0-0.1,0-0.2,0.1-0.3c0.2,0,0.4,0,0.6,0l4.6,0.1c1.6,0,4.7-1.2,5.9-3.4c1.2-2.1,1.2-4.7,0-6.8c-0.2-0.2-0.3-0.5-0.5-0.8c0.6-0.2,1.3-0.5,2-0.6c6-2,12.3-4,18-7.8c1.6,0.5,3.1,0.9,4.5,1.2c2,0.5,4.1,0.1,5.8-1.1l7.7-5.8c1.7-1.2,2.7-3.2,2.7-5.3c0.3-17.7,0.3-21-2-29.3c48.6-29.6,55-34.2,46.4-55.4c29.2-31.9,30.4-33.8,31.7-56.4c0.2-2.6,0.3-6,0.3-8.5c0.1-3.7-2.8-6.7-6.4-6.8c-2.9-0.1-70.9-3.3-111.8-42.4c-1.4-1.3-3-2.1-5.2-1.8c-6.1,0.5-15.9,1.2-30.8,11.7l-2.4-1.7l5.1-5.4c1.9-2.1,2.4-5.1,1.1-7.7c-17.2-34-22.4-37.7-39.3-39.9c-20.7-2.8-20.7-2.8-26.8-22.7c-0.3-1-0.9-2-1.6-2.7l-6-6.1c-17.1-16.7-37.9-24.7-59.9-33.3c-1-0.4-2-0.5-3.1-0.4l-11.9,1.2c-11-6.6-16.3-9.9-26.7-16.5c-2.6-1.7-6-1.3-8.3,0.8c-6.8,6.7-10,8-12.8,8c-6.1,0-16.4-6.8-33.3-18.1c-3.3-7.8-13.8-21.5-28.7-31.1l-1.7-4.4c0.7-6.4,1.5-12.8,2.4-19.1c6.6-7.8,8.2-11.2,10.9-21.3c0.5-1.9,0.2-3.9-1-5.6c-1.1-1.6-2.9-2.7-4.9-2.8c-10.8-0.9-18,3.7-26.5,13.1c-1.6-0.7-3.1-1.4-4.7-2.2c-1.4-6.6-4.3-22.8-2.6-40c6.2-3.5,8.5-7.4,20.2-29.1c21.2,0.8,22,1.3,35.7,10.7c2.1,1.4,4.7,1.6,7,0.4c1.9-1,4-2.2,6.3-3.4l1.7,5.5c0.8,2.6,3.1,4.5,5.9,4.7c3.1,0.3,5,0.3,7.2,0.1c-0.5,8.1,0.2,16,0.8,23.7c0.6,7.5,1.2,14.6,0.8,21.6c-0.1,2.7,1.3,5.2,3.7,6.3c1.1,0.5,2.3,0.6,3.4,0.6c-1.3,0.3-2.6,0.5-3.9,1.1c-4-9.6-11.5-11.7-16.2-11.7c-5.9-0.1-9.4-0.5-14.9-1.3c-2.7-0.4-5.2,0.8-6.7,3c-1.4,2.2-1.4,5.1,0.1,7.3c3.4,5.1,10.1,12.5,29.2,18.1h0c7.1,12,9.9,13.2,27.2,17.3c0.5,0.1,1,0.2,1.6,0.2c1.6,0,3.2-0.6,4.5-1.7l4.7-4.2c1.7-1.5,2.7-3.8,2.3-6.1c-0.4-2.3-1.8-4.1-3.9-5c-0.6-0.4-1.9-1.8-5.5-6.5c-5.1-6.8-8.4-11.3-15-11.3c-0.7,0-1.5,0.4-2.1,0.5c1-0.2,2-0.5,2.8-1.2l21.3-17.9c2.3-1.9,3-5.2,1.8-7.9l-5.6-12.4c0.9-3.2,1.8-6,3.2-9.2c0.8-0.2,1.6-0.5,2.4-1c4.2-2.9,8.9-5,14-7.3c4.4-2,9-4.1,13.4-6.8c6,0.1,11.1,1.1,16.8,2.1c2.4,0.5,4.9-0.4,6.4-2.3c18.5-22.4,19.5-23.7,24.4-28.5c31.5-13.9,32.5-14.2,116.7-37.2c3-0.8,5-3.6,4.9-6.7c-0.1-3.1-2.3-5.7-5.3-6.4c-3.7-0.8-5-1.1-6.8-2.6l6.2-6.7c1.6-1.7,2.2-4.2,1.6-6.4c0-0.1,0-0.1,0-0.2c3.2-0.1,6.8-0.2,10.6-0.2c0.5,1.3,1.2,2.4,2.5,3.2c7.9,6.4,12.3,11.4,12.9,12.9c0.9,2.1,2.9,3.7,5.1,4c0.4,0.1,0.8,0.1,1.2,0.1c1.9,0,3.7-0.8,5-2.2l10-11.3c1.6-1.8,2.1-4.4,1.3-6.7c-0.8-2.3-2.8-4-5.2-4.4l-2.9-0.5c5.5-3.9,13.4-10.6,27.4-22.5c2.2-1.9,3-4.9,1.9-7.6c-1.1-2.7-3.9-4.5-6.6-4.2c-4.8,0.3-8.1,0.7-11.6,1.7l0,0c0.9-2,0.8-4.2-0.2-6.1l-5.4-10c1.2-3.5,1.7-4.5,4.6-9.9c0.9-1.6,1-3.5,0.5-5.2c-0.6-1.7-1.8-3.2-3.4-4c-8.9-4.4-16.8-5.6-28.1-3.6c-12.2-20.5-13.8-22.4-23.6-24.2c-1.9-0.3-3.9,0.2-5.4,1.4c-1.5,1.2-2.4,3-2.5,5c-0.1,2-0.2,4.2-0.3,6.5l-7.1-0.6c-2.2-0.3-4.3,0.6-5.7,2.3c-9,10.3-19.1,20-28.9,29.4c-7.4,7.1-15,14.4-22.3,22c-4.8-11-8.5-29.2-9.7-40.9l29.5-15.1c27.3-17.2,38.6-24.3,44.9-24.3c2.2,0,4.9,1,8.7,2.8c-0.8,1.1-1.4,2.4-1.4,3.9c0.1,3.4,2.7,6.2,6.1,6.6c5,0.5,10.4,0.9,15.7,1.2l5.9,11.2c1.2,2.2,3.5,3.6,6,3.6c2.8-0.2,4.9-1.4,6-3.7c8.2-16.4,12.9-17.2,13.8-17.2c2.6,0,6.9,4.5,8.5,6.1c1.3,1.3,3,2,4.9,2c1.9-0.3,3.7-0.8,5-2.2c2.7-2.9,8.4-8.9,9.7-18l0.2-2.2c0.2-2.3-0.5-4.6-2.3-6c-1.1-0.9-2.4-1.4-3.7-1.4c-0.2-2.3,0-5.6,0.1-7c0.1-2.3-0.9-4.5-2.8-5.9c-5-3.5-4.9-4.6-4.8-6.3c0.2-3.5-2.5-6.6-6-7c-0.6-0.1-2.4-0.5-7.9-2.9c-3.7-1.6-6.3-2.5-8.6-2.8l-1.8-3.9c-0.8-1.8-2.4-3.1-4.3-3.6c-1.7-0.5-3.8-0.2-5.4,0.8c-0.1-0.2-0.3-0.3-0.4-0.5c-1.8-1.9-4.8-2.4-7.3-1.6c-3.8,1.3-6.1,2.2-8,3.1c-0.1-2,0.1-3.8-0.1-6c-0.1-1.6-0.8-2.8-1.8-3.8c0.7-0.5,1.3-0.8,2-1.3c1.3-1.2,2.1-2.8,2.3-4.6c0.1-2.3,0.2-5.3,0.3-7.6c0.1-2.3-1.3-4.4-3.3-5.7c0,0-0.1,0-0.1,0c1-0.7,2.3-1.6,4.3-3.3c3.8-3,4.1-5,5.4-12.6c0.5-2.6-1.1-4.9-3.3-6.3c-2.1-1.5-5.5-1.3-7.7,0.1c-15.7,9.3-15.7,9.3-18.5,10.3c-3.2,1.2-5,4.6-4.2,8c0.9,3.4,4,5.5,7.5,4.9c2.7-0.4,4.5-0.7,6-1c0.3,0.3,0.8,0.6,1.1,0.8c-2.9,1.4-5,2.5-5,2.5c-1.3,0.7-2.7,2.4-3.3,3.7c-0.4,0.8-0.9,1.6-1.3,2.4c-1.4-1-3-1.9-4.7-1.7c0.8-1.7,0.6-3.7-0.1-5.6c-0.9-2.3-3.3-3.9-5.7-4.3c-1.6-0.2-3.3-0.3-4.9-0.3c0,0-0.1,0-0.1,0c-0.6,0-1.1,0-1.6,0c-1.8-1.7-4.5-2.4-7.1-1.4c-8,3.1-11.3,4.6-14.3,6.4c-2.5,1.5-3.7,4.5-3,7.4l0.5,1.9c0.6,2.4,2.4,4.2,4.7,4.8l0,0c0.1,0.9,0.6,1.6,1,2.3c-1,0.3-1.9,0.5-3.1,1l-1.9-1.7c-0.2-4.8-1.3-6.9-5.8-11c-2.2-2-5.4-2.2-7.9-0.6c-1.8,1.1-3,3.1-3.2,5.2c-0.1,0.4-0.9,1.4-1.4,2c-1.6,2.1-3.7,4.9-4,9.2c-0.1,2,0.2,3.7,0.4,5c0.1,0.6,0.3,1.6,0.2,2.1c0,0.1-0.1,0.2-0.1,0.3c-2.6,0.6-5.6,1.4-7.9,2.4c-1.7,0.8-3,2.2-3.7,3.9c-0.6,1.8-0.5,3.7,0.4,5.3c1.7,3.3,4.3,5.8,7.3,7.7l-3.2,1.4c-0.5-0.3-1.1-0.6-1.7-0.7c-1.2-0.3-2.6-0.6-4-1l-0.6-5c-0.3-2.2-1.6-4-3.5-5c-1.1-0.6-2.4-0.9-3.6-0.8c-0.6-0.5-1.4-0.8-2.1-1c-0.6-0.2-1.2-0.3-1.8-0.5l0.7-1.9c0.7-1.7,0.6-3.7-0.2-5.3c-0.8-1.7-2.2-3-4-3.5c-3.8-1.2-7.4-2.6-10.8-3.8c-1.6-0.6-3.3-0.6-4.9,0.1c-3.6,1.4-6,2.2-7.8,2.6l2.9-4.4c1.2-1.8,1.5-4.1,0.8-6.1c-0.8-2-2.5-3.6-4.6-4.2c-3.8-1-7.7-2-15.4-1c-0.2-0.6-0.4-1.3-0.8-1.9c1.2-1.9,1.4-4.4,0.4-6.5c-0.5-1.1-1.3-2-2.3-2.7c0.5-2,0.1-4.1-1.2-5.8c-2.1-2.6-5.7-3.3-8.5-1.7c-5.2,2.9-6.1,3.4-15.5,8c-0.3-0.2-0.5-0.3-0.8-0.4c70.8-44.9,151.7-68.5,236.5-68.5c79.7,0,157.6,21.4,225.9,62.1c-1.3,0.7-1.7,0.8-2.1,0.8c-2.4,0-8.4-2.1-18.5-5.7c-2.3-0.8-5-0.3-6.8,1.4c-2.3,2.1-5,4-8.2,5.9c-1.7,1-2.8,2.8-3.1,4.8c-0.3,2,0.3,4.1,1.6,5.6c17.3,20.1,19.4,22.6,27.4,37.3c-2.6,13.8,1.2,16.9,22.8,34.4c2.4,1.9,6.2,1.6,8.7-0.2l2.6-1.9c1,0.6,2.1,0.9,3.2,0.9h0.6c-0.4,0.7-0.6,1.4-0.7,2.2c-0.9,6.4,0.1,8.3,9.6,19.9c-0.3,0.3-0.6,0.6-0.9,0.9c-1.6,1.3-2.5,3.2-2.5,5.2l0,4.8c-6.4-2.4-7.8-3.2-13.1-6.1c-1.4-1.1-1.7-1.5-2-1.9l-11.2-15.4c-2.1-2.8-6-3.5-8.9-1.7c-2.7,1.7-5.9,4.2-8.2,6.6c-1.6,1.7-2.3,4-1.7,6.3c0.6,2.8,1.7,5.9,5,9.8c-5.4,2.8-8.8,9.1-11.7,15.4c-0.9,2-0.1,5.4,0.9,7.3l6.5-2.1l-5.2,4.3c0,0,1.3,2.5,1.3,2.5l6.5-2.1l-5.3,4.3c0,0,1.2,2.3,1.3,2.3c0,0,1.3,2.4,1.3,2.5l2.6-0.8c-0.1,0.7-0.1,1.3-0.2,2l-1.2,1c0,0,1.3,2.4,1.3,2.5l0.6,1.2c1.2,2.2,3.5,3.6,5.9,3.6c0.5,0,1-0.1,1.4-0.2c2.9-0.6,5.1-3.2,5.3-6.2c0.4-6.9,1.8-7.4,3.1-7.8c1.3-0.4,2.1-1.6,3-2.7l0,0.6c0.1,1.8,0.8,3.5,2.1,4.7c1,1,2.3,2.2,3.4,3.4c-0.3,1.7,0.1,3.4,1,4.9c1.1,1.6,2.8,2.7,4.8,2.9c3.3,0.4,3.8,0.5,17.4,21.2c-4.9,0.8-13.3,1.6-28.6,2.5c-2.2,0.1-4.2,1.4-5.4,3.3c-1.2,1.9-1.3,4.3-0.3,6.3c2.9,6.2,6.2,12.3,9.5,18.3c2.4,4.4,4.8,8.8,7,13.3c-1.5,1.8-2,4.3-1.2,6.6l3.4,9.6c0.1,0.2,1.1,3,1.2,3.1c0.6,1.7,1.8,3.1,3.4,3.9c1.6,0.8,3.5,0.9,5.1,0.3c29.8-10.4,31.1-10.9,46.2-17.5c3.4-1.5,4.9-5.4,3.5-8.8c-2.4-5.6-4.9-11.2-7.5-16.8c4.1-5.7,5.1-12.2,6.1-18.1c0.7-4.8,1.4-9,3.6-12.2c1.3-0.5,2.5-1,3.8-1.5c15.3,15.7,20.6,20.5,28.9,20.5c1.9,0,3.8-0.3,5.7-0.8c1.6,2.4,2.7,3.8,6.2,8.3c2.1,2.7,5.9,3.2,8.9,1.3c2.9-1.9,3.8-5.8,2.2-8.9c-1-1.9-2-3.7-3.1-5.7c4.4,3.5,9.4,7.6,15.2,12.3c1.9,1.5,4.4,1.9,6.7,1c2.3-0.9,3.9-2.9,4.2-5.3c0.3-1.8,0.3-3.4,0.3-5c0.2,0.2,0.4,0.3,0.6,0.5c2.1,1.7,5,1.9,7.4,0.6c0.4-0.2,0.7-0.4,1-0.6c3.6,7.4,7,15,10.2,22.7c-3.8,1.6-10.1,4.2-20.7,8.5c-2.7,1.1-4.3,3.8-4.1,6.7c0.2,3.5,0.2,5.3-0.9,9.6c-8.1-4.3-20.2-14.7-29.3-24.4c-2.1-2.3-5.7-2.7-8.4-1.1c-10.5,6-32.3,18.4-63.7,27c-2.3,0.6-4.1,2.4-4.7,4.7c-0.4,1.4-0.3,2.8,0.2,4.1c-0.5,0.1-1,0.3-1,0.3l0.3,6.9l-3-6.2c-2.1,0.5-4.1,2.4-4.9,4.4c-13.3,34-24.7,63.4-61.5,116c-2,2.8-1.5,6.7,1.2,9l9.9,8.3c6.1,43.8,6,44-0.4,57.9c-1.2,2.7-0.6,5.8,1.7,7.8c61.5,54.9,61.5,54.9,76.2,59.3c2.8,0.8,6-0.3,7.5-2.8l7-11c17.6-4.2,34.3-8.8,49.8-13.8c12.6-4,22.6-7.2,28.7-7.2c3.4,0,4.2,1,4.7,1.4C900.6,602.1,897.8,637.3,894.4,680.5z M295.1,320.2c-0.9-2.8-4.2-4.7-7.2-4.7l-5.6-0.2c-0.8,0-1.7,0-2.6,0.1c0.4-0.9,0.6-1.9,0.6-2.8c0-2.3-1.2-4.5-3.2-5.7c-1.6-1-3.1-2.2-4.6-3.4c-0.9-0.7-1.9-1.4-2.8-2.2c7.5-5.9,9.9-4.3,21.5-0.4c3.3,12.3,6.6,21.9,13.3,28.9c-2.6,1.6-5,3.4-7.4,5.1c-5.5,3.9-10.4,7.4-15.9,9.2c1.5-3.2,2.8-6.7,3.5-10.6l8.6-5.9C295.7,326,296,323,295.1,320.2z M377.5,178.5c8.4-1.9,17.5-6.6,26.5-14l2.6-2.1c0.7-0.6,1-1.3,1.4-2.1c-12.2,22.6-13.5,22.9-20.5,22.9c-0.8,0-1.7,0-2.6-0.1c-0.9-2.5-3.2-4.3-5.8-4.5C378.6,178.6,378.1,178.6,377.5,178.5z M408.8,159c0.2-0.7,0.1-1.4,0.1-2.1h0c0.3,0.1,0.6,0.1,1,0.1C409.6,157.7,409.2,158.3,408.8,159z M426.4,169.6l0.2,0.9c0.5,3,2.9,5.2,5.9,5.6c0.3,0,0.5,0.1,0.8,0.1c0.9,0,1.7-0.4,2.4-0.7c0.3,0.5,0.4,0.8,0.7,1.4c0,0-0.1,0-0.1,0c-4.8,2.3-7.8,3.5-10.3,4.4c-0.6-3.5-0.5-7.4-0.3-11.6c0.2-4.2,0.3-8.3-0.2-12.5c-0.3-2.4-3.3-5-5.6-6c-0.6-0.2-1.3,0-2,0c0.6-0.8,1.3-1.5,1.9-2.3c1.1,1.1,2.3,2,3.9,2.2c0.3,0,1.7,0.1,2,0.1c0.4,0,0.9-0.3,1.3-0.3C425.7,154.8,425.2,160.3,426.4,169.6z M448.6,189.4l-3.2-8.8c-0.1-0.3-0.5-0.4-0.6-0.6c0.2-0.1,0.3,0,0.5,0c0.4-0.2,1.4-0.6,3-0.6c3.9,0,7.5,1.7,9.3,3.4c-6.1,7.5-10,13-14.4,20.1c-1.5,0.1-2.8,0.5-4.2,0.7c2.7-2.4,5.4-4.9,7.7-7C448.9,194.9,449.6,192,448.6,189.4z M736.6,249.5l-2.3-4.9c0.8,0.6,1.3,1,2.2,1.7L736.6,249.5z M280.9,524.7c1.8,2.7,1.3,6.4-1.1,8.6l-10.8,10c-1.3,1.2-2.9,1.8-4.6,1.8c-0.2,0-0.3,0-0.5,0c-1.8-0.1-3.6-1-4.7-2.5c-8.1-10.1-8.9-10.8-10.5-10.8c-1.1,0-2.4,0.1-3.9,0.3c-3.3,0.3-6.3-1.8-7.1-5c-4-15.6-3.1-21.5,10.7-25.6l2.6-0.6c1.6-0.4,3.4-0.2,4.9,0.6l14.1,7.8c1,0.5,1.8,1.3,2.4,2.2L280.9,524.7z M631,177.7c-19.6,25.5-48.5,44.3-63.4,50.3c-0.1,2.8-0.7,5.8-2.8,8.3c-1.5,1.7-4.3,3.9-9.2,4.1c-0.1,0-0.6,0-0.7,0c-6.7,0-11.2-3.7-14.5-6.4c-1.9-1.6-3.5-2.9-5-3.3c-2.7-0.7-4.6-2.9-5-5.6c-0.3-2.2-1.3-4.6-2.4-7.2c-1.9-4.5-4.1-9.5-3.5-15.7c0.1-0.9,0.3-1.7,0.7-2.6l1.4-2.7c2.1-4.1,4.3-8.9,6.5-14.1c-1.5-1.9-3.1-3.9-4.5-5.5c-1.4-1.6-1.9-3.8-1.4-5.9c1-4.1,1.3-6.3,1.2-8.2c-1.4-1.8-2.8-3.8-4.3-5.9c-2.5-3.5-5.1-7.2-7.6-9.6c-3.4-1.1-7.4-2.2-9-2.3c-1.6-0.1-3-0.9-4.1-2l-1.7,2.3c-1.1,1.4-2.7,2.4-4.5,2.7c-1.8,0.2-3.6-0.3-5-1.4c-0.3-0.2-0.5-0.4-0.7-0.6c-3.7,3-8.2,4.5-19.3,8c-0.7,0.2-1.4,0.3-2.1,0.3c-1.1,0-2.3-0.3-3.3-0.8c-3.9-2.2-5.5-3-6.3-3.1c-3.5-0.5-6-3.7-5.7-7.2c0.3-3.5,2.6-6.4,6.8-6.1c0,0,0.1,0,0.1,0c7.7,0,11.8-2.1,23.6-11.2c-2.4-3.9-3.6-6.8-4.3-10.7c-0.4-2,0.2-4,1.4-5.5c1.3-1.5,3.2-2.4,5.2-2.4c1.6,0,4.5-0.6,9-1.7c4.9-1.1,10.7-2.5,15-2c0.9-0.5,1.8-1,3-1.3c5-1.3,9.3,3.8,9.9,4.7c0.2,0.2,0.2,0.5,0.3,0.8c0.6-0.3,0.9-1,1.6-1.1c0.7-0.1,1.5-0.1,2.1,0c0.3-2.1,1.6-4.4,3.4-5.4c1.9-1.1,4.3-1.6,6.2-0.7c5.7,2.7,8.7,3.8,10.1,4.3c0.1,0,1.1,0,2.5,0c1.1,0,2.5,0,3.9-0.1c1.6-0.1,2.9,0.1,4.1,0.4c0.6-1.4,1.6-2.8,3.1-4c1.7-1.4,3.8-2.1,6-2.1c0.5,0,2.6,0.3,3.1,0.4c0.4-1.3,2-2.8,4.4-3.6l3.8-1.2c1.6-0.5,4-0.5,5.6,0.3l9.7,5c1.4,0.7,2.5,1.9,3.1,3.2c2.1-1.6,5-1.8,7.3-0.6c2.2,1.2,3.5,3.4,3.5,5.9c1.4,3.8,7,17.2,19.5,28.4c0.9,0.8,1.5,1.8,1.9,2.9l0.7,2.1c0.7,2.1,1.4,4.4,2.1,6.3c0.9,2.4,0.3,5.1-1.5,7c-0.2,0.2-0.4,0.4-0.6,0.6c0.9,1.2,1.7,2.5,2.6,3.7c1.4,2.1,1.6,4.8,0.4,7c-0.6,1-1.3,1.8-2.2,2.4c0.3,0.4,0.6,0.8,0.8,1.2C633,172.9,632.6,175.7,631,177.7z M672.2,192.1c0,0.1,0.1,1.7,0.1,1.7c0,10.3-7,15.1-26.9,18.4c-0.4,0.1-0.7,0.1-1.1,0.1c-1.4,0-2.7-0.4-3.9-1.2l-2.4-1.7c-2.7-1.9-5.8-4.1-8.3-5.7c-1.9-1.3-3-3.4-2.9-5.6c0-2.3,1.2-4.3,3.1-5.6c4.8-3.1,9.4-4.9,16-6.3c7.7-1.4,13.5-1.5,20.6-0.5C669.6,186.2,672.1,188.9,672.2,192.1z"/></g>
</svg>