<?xml version="1.0" encoding="UTF-8" standalone="no"?>
<svg
   data-name="Layer 1"
   viewBox="0 0 95.586639 61.686321"
   x="0px"
   y="0px"
   version="1.1"
   id="svg76"
   sodipodi:docname="people.svg"
   width="95.586639"
   height="61.686321"
   inkscape:version="1.1 (c68e22c387, 2021-05-23)"
   xmlns:inkscape="http://www.inkscape.org/namespaces/inkscape"
   xmlns:sodipodi="http://sodipodi.sourceforge.net/DTD/sodipodi-0.dtd"
   xmlns="http://www.w3.org/2000/svg"
   xmlns:svg="http://www.w3.org/2000/svg"
   xmlns:rdf="http://www.w3.org/1999/02/22-rdf-syntax-ns#"
   xmlns:cc="http://creativecommons.org/ns#"
   xmlns:dc="http://purl.org/dc/elements/1.1/">
  <metadata
     id="metadata82">
    <rdf:RDF>
      <cc:Work
         rdf:about="">
        <dc:format>image/svg+xml</dc:format>
        <dc:type
           rdf:resource="http://purl.org/dc/dcmitype/StillImage" />
        <dc:title>Essential Icon Set Outline</dc:title>
      </cc:Work>
    </rdf:RDF>
  </metadata>
  <defs
     id="defs80" />
  <sodipodi:namedview
     pagecolor="#ffffff"
     bordercolor="#666666"
     borderopacity="1"
     objecttolerance="10"
     gridtolerance="10"
     guidetolerance="10"
     inkscape:pageopacity="0"
     inkscape:pageshadow="2"
     inkscape:window-width="1920"
     inkscape:window-height="1000"
     id="namedview78"
     showgrid="false"
     inkscape:zoom="6.6556426"
     inkscape:cx="46.952641"
     inkscape:cy="38.463604"
     inkscape:window-x="-11"
     inkscape:window-y="-11"
     inkscape:window-maximized="1"
     inkscape:current-layer="svg76"
     inkscape:pagecheckerboard="0"
     fit-margin-top="0"
     fit-margin-left="0"
     fit-margin-right="0"
     fit-margin-bottom="0" />
  <title
     id="title62">Essential Icon Set Outline</title>
  <g
     id="g148"
     transform="matrix(1.6480449,0,0,1.6480449,-4.9441022,-21.918997)">
    <path
       d="M 23.71,21.59 A 8.29,8.29 0 1 0 32,13.3 8.3,8.3 0 0 0 23.71,21.59 Z m 14.58,0 A 6.29,6.29 0 1 1 32,15.3 a 6.29,6.29 0 0 1 6.29,6.29 z"
       id="path64" />
    <path
       d="m 48.92,30.73 a 12,12 0 0 0 -7.85,2.92 15.21,15.21 0 0 0 -18.14,0 A 12.06,12.06 0 0 0 3,42.81 v 2.92 a 1,1 0 0 0 1,1 h 12.71 v 3 a 1,1 0 0 0 1,1 h 28.58 a 1,1 0 0 0 1,-1 v -3 H 60 a 1,1 0 0 0 1,-1 V 42.81 A 12.09,12.09 0 0 0 48.92,30.73 Z M 5,42.81 a 10.08,10.08 0 0 1 16.38,-7.87 l -0.2,0.22 -0.39,0.41 c -0.22,0.24 -0.44,0.49 -0.65,0.74 l -0.35,0.45 c -0.21,0.27 -0.4,0.55 -0.58,0.83 -0.18,0.28 -0.2,0.29 -0.29,0.44 -0.2,0.34 -0.4,0.7 -0.58,1.06 0,0.09 -0.1,0.18 -0.14,0.27 -0.22,0.46 -0.41,0.93 -0.59,1.41 0,0.12 -0.07,0.24 -0.11,0.36 -0.12,0.36 -0.23,0.73 -0.32,1.1 -0.05,0.17 -0.08,0.35 -0.12,0.52 -0.07,0.33 -0.13,0.66 -0.17,1 -0.04,0.34 -0.05,0.38 -0.07,0.57 -0.02,0.19 -0.05,0.28 -0.06,0.42 H 5 Z m 13.71,5.89 v -2.82 a 0.66,0.66 0 0 0 0,-0.14 13.28,13.28 0 0 1 21.75,-10 c 0.32,0.28 0.63,0.56 0.92,0.85 a 13.18,13.18 0 0 1 3.89,9.2 c 0,0 0,0.09 0,0.11 v 2.8 z M 59,44.7 H 47.24 c 0,-0.1 0,-0.19 0,-0.29 0,-0.1 -0.05,-0.41 -0.07,-0.62 C 47.15,43.58 47.05,43.3 47,43 46.95,42.7 46.92,42.59 46.87,42.39 46.82,42.19 46.74,41.88 46.67,41.62 L 46.49,41.03 C 46.4,40.78 46.31,40.54 46.21,40.29 46.11,40.04 46.06,39.91 45.98,39.73 45.9,39.55 45.75,39.24 45.63,39 c -0.12,-0.24 -0.17,-0.36 -0.27,-0.53 -0.1,-0.17 -0.29,-0.48 -0.44,-0.72 -0.15,-0.24 -0.19,-0.32 -0.3,-0.47 -0.11,-0.15 -0.37,-0.51 -0.57,-0.76 -0.2,-0.25 -0.18,-0.25 -0.28,-0.37 -0.3,-0.36 -0.62,-0.72 -1,-1.06 L 42.62,35 A 10.08,10.08 0 0 1 59,42.81 Z"
       id="path66" />
    <path
       d="m 48.92,16.85 a 6.66,6.66 0 1 0 6.65,6.65 6.65,6.65 0 0 0 -6.65,-6.65 z m 0,11.31 a 4.66,4.66 0 1 1 4.65,-4.66 4.66,4.66 0 0 1 -4.65,4.66 z"
       id="path68" />
    <path
       d="m 8.43,23.5 a 6.65,6.65 0 1 0 6.65,-6.65 6.66,6.66 0 0 0 -6.65,6.65 z m 11.3,0 a 4.65,4.65 0 1 1 -4.65,-4.65 4.66,4.66 0 0 1 4.65,4.65 z"
       id="path70" />
  </g>
</svg>
