<?xml version="1.0" encoding="utf-8"?>
<!-- Generator: Adobe Illustrator 23.0.1, SVG Export Plug-In . SVG Version: 6.00 Build 0)  -->
<svg version="1.1" id="Layer_1" xmlns="http://www.w3.org/2000/svg" xmlns:xlink="http://www.w3.org/1999/xlink" x="0px" y="0px"
	 viewBox="0 0 512 512" style="enable-background:new 0 0 512 512;" xml:space="preserve">
<style type="text/css">
	.st0{fill-rule:evenodd;clip-rule:evenodd;fill:#1B1B1B;}
</style>
<path class="st0" d="M352.9,382.7h-43.6c-3.7,0-6.7-3-6.7-6.7s3-6.7,6.7-6.7h43.6c56.2,0,89.7-48.4,89.7-95.2
	c0-52.5-43.3-95.2-96.4-95.2c-1.9,0-3.9,0.1-5.8,0.3c-2.9,0.3-6-1.5-7-4.4c-15.3-43.2-56.8-72.3-103.1-72.3
	c-60.3,0-109.3,48.4-109.3,107.9c0,5,0.4,10.1,1.3,15.6c0.5,3.3-1.4,6.4-4.5,7.4c-28.9,9.4-48.4,36-48.4,66.1
	c0,38.4,31.7,69.7,70.7,69.7h76c3.7,0,6.7,3,6.7,6.7s-3,6.7-6.7,6.7h-76c-46.3,0-84-37.3-84-83c0-34,20.8-64.2,52.3-76.8
	c-0.5-4.2-0.7-8.2-0.7-12.3c0-66.8,55-121.2,122.7-121.2c50.3,0,95.4,30.5,113.9,76.4c0.7,0,1.4,0,2.1,0
	c60.5,0,109.8,48.7,109.8,108.5C456,327.5,417.5,382.7,352.9,382.7z M204.6,327.4c-2.6-2.6-2.6-6.8,0-9.4l53.3-53.3
	c0.6-0.6,1.3-1.1,2.2-1.4c1.6-0.7,3.5-0.7,5.1,0c0.8,0.3,1.6,0.8,2.2,1.4l53.3,53.3c2.6,2.6,2.6,6.8,0,9.4c-1.3,1.3-3,2-4.7,2
	s-3.4-0.7-4.7-2l-42-42V416c0,3.7-3,6.7-6.7,6.7c-3.7,0-6.7-3-6.7-6.7V285.4l-42,42C211.4,330,207.2,330,204.6,327.4z"/>
</svg>
