<?xml version="1.0" encoding="UTF-8" standalone="no"?>
<svg
   version="1.1"
   viewBox="0 0 14.000044 13.984663"
   id="svg4"
   sodipodi:docname="restaurant.svg"
   width="14.000044"
   height="13.984663"
   inkscape:version="1.1 (c68e22c387, 2021-05-23)"
   xmlns:inkscape="http://www.inkscape.org/namespaces/inkscape"
   xmlns:sodipodi="http://sodipodi.sourceforge.net/DTD/sodipodi-0.dtd"
   xmlns="http://www.w3.org/2000/svg"
   xmlns:svg="http://www.w3.org/2000/svg">
  <defs
     id="defs8" />
  <sodipodi:namedview
     id="namedview6"
     pagecolor="#505050"
     bordercolor="#eeeeee"
     borderopacity="1"
     inkscape:pageshadow="0"
     inkscape:pageopacity="0"
     inkscape:pagecheckerboard="0"
     showgrid="false"
     fit-margin-top="0"
     fit-margin-left="0"
     fit-margin-right="0"
     fit-margin-bottom="0"
     inkscape:zoom="39.8"
     inkscape:cx="4.1959799"
     inkscape:cy="7.0351759"
     inkscape:window-width="2880"
     inkscape:window-height="1541"
     inkscape:window-x="2869"
     inkscape:window-y="-11"
     inkscape:window-maximized="1"
     inkscape:current-layer="svg4" />
  <path
     d="M 0.44846,13.879037 C 0.16593,13.706757 0,13.411297 0,13.080467 c 0,-0.36409 0.12471,-0.60664 0.4938,-0.96039 0.15783,-0.15127 1.5301,-1.371 3.0495,-2.7104997 1.5194,-1.3395 2.7552,-2.4555 2.7462,-2.4799 -0.054751,-0.14876 -0.75463,-0.89237 -0.94732,-1.0065 -0.22462,-0.13306 -0.24902,-0.13582 -0.88846,-0.10035 -1.3672,0.075833 -2.1417,-0.18298 -3.0369,-1.0148 -0.90926,-0.84487 -1.3611,-1.8026 -1.3615,-2.8859 -1.803e-4,-0.52613 0.091008,-0.92264002 0.29046,-1.26300002 0.11068,-0.18887 0.21351,-0.27472 0.49503,-0.41331 0.32192,-0.15848 0.41183,-0.17709 0.95638,-0.19793 0.71138,-0.027229 1.0827,0.049929 1.7298,0.35945 1.0218,0.48874 1.8743,1.44650002 2.2109,2.48400002 0.077245,0.23803 0.09703,0.49228 0.10082,1.2955 0.00395,0.83854 0.019223,1.0215 0.094894,1.137 0.10733,0.1638 1.0015,0.98677 1.0722,0.98677 0.02705,0 0.25386,-0.17819 0.50402,-0.39598 0.52482,-0.4569 0.61349,-0.62863 0.51878,-1.0048 -0.1561,-0.61993 -0.03468,-1.105 0.38986,-1.5577 0.20036,-0.21363 4.2544,-3.28400002 4.42,-3.34750002 0.03711,-0.014241 0.09322,0.00551 0.12469,0.043866 0.04396,0.053601 -0.32808,0.41895 -1.6063,1.57750002 -0.91494,0.82923 -1.7788,1.6096 -1.9197,1.7342 l -0.25621,0.22652 0.10838,0.10921 0.10838,0.10921 1.902,-1.7561 c 1.7644,-1.62900002 1.9084,-1.74970002 1.9905,-1.66760002 0.08209,0.082085 -0.04361,0.22062 -1.7373,1.91490002 -1.6166,1.6171 -1.8174,1.8364 -1.7528,1.9143 0.0649,0.078201 0.2769,-0.11588 1.9115,-1.75 1.5913,-1.59080002 1.8479,-1.82670002 1.9079,-1.75440002 0.0595,0.071694 -0.05255,0.21534 -0.79029,1.01320002 -2.8824,3.1173 -2.6594,2.8564 -2.5423,2.9743 0.10496,0.1057 0.10593,0.1057 0.207,0 0.05585,-0.058408 0.84052,-0.92197 1.7437,-1.919 1.2094,-1.335 1.658,-1.79700002 1.7023,-1.7527 0.03308,0.033076 0.06013,0.080623 0.06013,0.10566 0,0.10098 -3.2666,4.3705 -3.4737,4.5402 -0.41574,0.34067 -0.84293,0.42435 -1.4746,0.28887 -0.22001,-0.047181 -0.3015,-0.042321 -0.4469,0.026677 -0.17419,0.082659 -0.87779,0.84127 -0.87779,0.94642 0,0.02933 1.3317,1.2299 2.9593,2.668 1.6276,1.4380997 3.0194,2.6991997 3.0929,2.8024997 0.17839,0.25072 0.21857,0.73167 0.08469,1.0138 -0.21848,0.46042 -0.83187,0.65582 -1.3035,0.41524 -0.25095,-0.12802 -0.36978,-0.25686 -3.3468,-3.6285 -1.1962,-1.3547997 -2.1929,-2.4632997 -2.2148,-2.4632997 -0.02192,0 -1.1896,1.3024 -2.5949,2.8941997 -2.5626,2.9027 -2.8491,3.2086 -3.0941,3.3017 -0.22921,0.08714 -0.67546,0.059 -0.86129,-0.05429 z"
     stroke-width="0.094857"
     id="path2" />
</svg>
