<?xml version="1.0" encoding="UTF-8" standalone="no"?>
<!-- Generator: Adobe Illustrator 19.1.0, SVG Export Plug-In . SVG Version: 6.00 Build 0)  -->

<svg
   version="1.1"
   id="Capa_1"
   x="0px"
   y="0px"
   viewBox="0 0 47.999999 47.999999"
   xml:space="preserve"
   sodipodi:docname="next.svg"
   width="48"
   height="48"
   inkscape:version="1.2.1 (9c6d41e410, 2022-07-14)"
   xmlns:inkscape="http://www.inkscape.org/namespaces/inkscape"
   xmlns:sodipodi="http://sodipodi.sourceforge.net/DTD/sodipodi-0.dtd"
   xmlns="http://www.w3.org/2000/svg"
   xmlns:svg="http://www.w3.org/2000/svg"><defs
   id="defs39" /><sodipodi:namedview
   id="namedview37"
   pagecolor="#505050"
   bordercolor="#eeeeee"
   borderopacity="1"
   inkscape:showpageshadow="0"
   inkscape:pageopacity="0"
   inkscape:pagecheckerboard="0"
   inkscape:deskcolor="#505050"
   showgrid="false"
   inkscape:zoom="9.610524"
   inkscape:cx="22.891572"
   inkscape:cy="26.117202"
   inkscape:window-width="1920"
   inkscape:window-height="1009"
   inkscape:window-x="-8"
   inkscape:window-y="-8"
   inkscape:window-maximized="1"
   inkscape:current-layer="Capa_1" />
<g
   id="g4"
   transform="matrix(0.09836919,0,0,0.09836919,-3.4011699e-5,1.2800969e-5)">
	<path
   d="m 483.058,215.613 -215.5,-177.6 c -4,-3.3 -9.6,-4 -14.3,-1.8 -4.7,2.2 -7.7,7 -7.7,12.2 v 93.6 c -104.6,3.8 -176.5,40.7 -213.9,109.8 -32.2,59.6 -31.9,130.2 -31.6,176.9 0,3.8 0,7.4 0,10.8 0,6.1 4.1,11.5 10.1,13.1 1.1,0.3 2.3,0.4 3.4,0.4 4.8,0 9.3,-2.5 11.7,-6.8 73,-128.7 133.1,-134.9 220.2,-135.2 v 93.3 c 0,5.2 3,10 7.8,12.2 4.8,2.2 10.3,1.5 14.4,-1.8 l 215.4,-178.2 c 3.1,-2.6 4.9,-6.4 4.9,-10.4 0,-4 -1.8,-7.9 -4.9,-10.5 z m -210.5,160 v -78.1 c 0,-3.6 -1.4,-7 -4,-9.5 -2.5,-2.5 -6,-4 -9.5,-4 -54.4,0 -96.1,1.5 -136.6,20.4 -35,16.3 -65.3,44 -95.2,87.5 1.2,-39.7 6.4,-87.1 28.1,-127.2 34.4,-63.6 101,-95.1 203.7,-96 7.4,-0.1 13.4,-6.1 13.4,-13.5 v -78.2 l 180.7,149.1 z"
   id="path2" />
</g>
<g
   id="g6">
</g>
<g
   id="g8">
</g>
<g
   id="g10">
</g>
<g
   id="g12">
</g>
<g
   id="g14">
</g>
<g
   id="g16">
</g>
<g
   id="g18">
</g>
<g
   id="g20">
</g>
<g
   id="g22">
</g>
<g
   id="g24">
</g>
<g
   id="g26">
</g>
<g
   id="g28">
</g>
<g
   id="g30">
</g>
<g
   id="g32">
</g>
<g
   id="g34">
</g>
</svg>
