<?xml version="1.0" encoding="UTF-8" standalone="no"?>
<!-- Uploaded to SVGRepo https://www.svgrepo.com -->

<svg
   version="1.2"
   id="_x31_"
   x="0px"
   y="0px"
   viewBox="0 0 48 29.423729"
   xml:space="preserve"
   sodipodi:docname="slow.svg"
   width="48"
   height="29.423729"
   inkscape:version="1.2.1 (9c6d41e410, 2022-07-14)"
   xmlns:inkscape="http://www.inkscape.org/namespaces/inkscape"
   xmlns:sodipodi="http://sodipodi.sourceforge.net/DTD/sodipodi-0.dtd"
   xmlns="http://www.w3.org/2000/svg"
   xmlns:svg="http://www.w3.org/2000/svg"><defs
   id="defs7" /><sodipodi:namedview
   id="namedview5"
   pagecolor="#505050"
   bordercolor="#eeeeee"
   borderopacity="1"
   inkscape:showpageshadow="0"
   inkscape:pageopacity="0"
   inkscape:pagecheckerboard="0"
   inkscape:deskcolor="#505050"
   showgrid="false"
   inkscape:zoom="4.7371429"
   inkscape:cx="94.044028"
   inkscape:cy="78.528347"
   inkscape:window-width="1920"
   inkscape:window-height="1009"
   inkscape:window-x="-8"
   inkscape:window-y="-8"
   inkscape:window-maximized="1"
   inkscape:current-layer="_x31_" />
<path
   d="m 34.886199,4.2421315 v 0.03874 l 2.905569,-2.440678 C 35.583535,0.6585956 33.162228,0 30.527845,0 27.893462,0 25.452785,0.6585956 23.341404,1.8014525 l 2.905569,2.440679 z M 19.409201,16.542373 c -4.784504,0 -8.716707,3.932203 -8.716707,8.716706 v 0.871671 0 c 0.03874,1.840193 1.530266,3.292978 3.37046,3.292978 1.840194,0 3.331719,-1.452785 3.37046,-3.292978 v 0 -0.871671 c 0,-1.104115 0.871671,-1.956417 1.956417,-1.956417 1.878934,0 3.4092,-1.530266 3.4092,-3.409201 0,-1.878934 -1.510895,-3.351089 -3.38983,-3.351088 z m 22.624697,-0.07748 c -1.878934,0 -3.409201,1.530266 -3.409201,3.409201 v 6.276029 0 c 0.07748,1.801453 1.530267,3.254236 3.37046,3.254236 1.840194,0 3.292979,-1.452784 3.37046,-3.254237 v 0 -6.33414 c 0.03874,-1.859565 -1.491525,-3.35109 -3.331719,-3.351089 z M 48,18.227603 c 0,-0.83293 -0.271186,-1.646489 -0.658596,-2.324455 -0.42615,0.309927 -0.910411,0.503632 -1.491525,0.503632 0.794189,0.949153 1.25908,2.13075 1.25908,3.409201 v 1.065375 C 47.728814,20.145278 48,19.215496 48,18.227603 Z m -23.438257,1.68523 c 0,1.104117 -0.348668,2.072639 -0.910411,2.905569 2.246973,0.503632 4.552058,0.794189 6.915254,0.794189 2.208232,0 4.280872,-0.232446 6.33414,-0.658596 v -3.099273 c 0,-1.25908 0.464891,-2.440678 1.220339,-3.292979 H 23.302663 c 0.736078,0.910412 1.25908,2.053269 1.25908,3.35109 z m -1.29782,-3.331719 v 0 c 0.03874,0 0,-0.03874 0,-0.03874 z M 46.663438,13.90799 c 0,-0.464891 -0.387409,-0.910411 -0.87167,-0.910411 H 45.675545 C 45.016949,8.7941895 42.692494,5.1331725 39.341404,2.8280875 l -3.409201,2.866828 c 1.878935,2.208233 3.176756,4.6682805 3.932204,7.3414045 H 38.024213 C 37.191283,10.51816 35.815981,8.0774825 33.859564,6.0823245 H 27.486683 C 25.530266,8.1162235 24.193705,10.479419 23.322034,13.03632 H 21.48184 c 0.755448,-2.595642 1.995158,-5.0363195 3.854722,-7.1476995 l -3.583535,-3.021792 c -3.292979,2.363196 -5.694916,5.966102 -6.334141,10.1694915 h -0.232445 c -0.464891,0 -0.871671,0.387409 -0.871671,0.87167 0,0.464892 0.387409,0.871671 0.871671,0.871671 h 30.566586 c 0.523002,0 0.910411,-0.40678 0.910411,-0.871671 z M 14.857143,15.825666 C 13.90799,15.709444 13.133172,14.915254 13.133172,13.90799 v -1.72397 c 0,-3.6222765 -2.905569,-6.5665865 -6.566586,-6.5665865 C 2.9443099,5.6174335 0,8.5230025 0,12.18402 v 1.72397 c 0,0.949153 0.7941889,1.723971 1.7239709,1.723971 H 6.469734 c 0.42615,2.208233 1.646489,4.009685 3.409201,5.307506 1.007264,-2.246973 2.769975,-4.009685 4.978208,-5.113801 z M 3.7384988,10.963681 c -0.5811138,0 -1.1041162,-0.464892 -1.1041162,-1.1041165 0,-0.581114 0.464891,-1.104116 1.1041162,-1.104116 0.6392252,0 1.1041162,0.464891 1.1041162,1.104116 C 4.823245,10.47942 4.3583535,10.963681 3.7384988,10.963681 Z"
   id="path2"
   style="stroke-width:0.193705" />
</svg>
