<?xml version="1.0" encoding="UTF-8" standalone="no"?>
<!-- Svg Vector Icons : http://www.onlinewebfonts.com/icon -->

<svg
   version="1.1"
   x="0px"
   y="0px"
   viewBox="0 0 48 31.318388"
   enable-background="new 0 0 1000 1000"
   xml:space="preserve"
   id="svg18"
   sodipodi:docname="speed.svg"
   inkscape:version="1.2.1 (9c6d41e410, 2022-07-14)"
   width="48"
   height="31.318388"
   xmlns:inkscape="http://www.inkscape.org/namespaces/inkscape"
   xmlns:sodipodi="http://sodipodi.sourceforge.net/DTD/sodipodi-0.dtd"
   xmlns="http://www.w3.org/2000/svg"
   xmlns:svg="http://www.w3.org/2000/svg"><defs
   id="defs22" /><sodipodi:namedview
   id="namedview20"
   pagecolor="#505050"
   bordercolor="#eeeeee"
   borderopacity="1"
   inkscape:showpageshadow="0"
   inkscape:pageopacity="0"
   inkscape:pagecheckerboard="0"
   inkscape:deskcolor="#505050"
   showgrid="false"
   inkscape:zoom="13.264"
   inkscape:cx="25.369421"
   inkscape:cy="12.515078"
   inkscape:window-width="1920"
   inkscape:window-height="1009"
   inkscape:window-x="-8"
   inkscape:window-y="-8"
   inkscape:window-maximized="1"
   inkscape:current-layer="svg18" />
<metadata
   id="metadata2"> Svg Vector Icons : http://www.onlinewebfonts.com/icon </metadata>
<path
   id="path4"
   d="M 30.487861,6.9139395e-4 22.696968,0.24553139 c -0.778601,0.0294 -1.415194,0.65129 -1.444575,1.44458001 -0.02938,0.82267 0.617006,1.51801 1.444575,1.54739 l 6.880095,0.24484 1.84608,2.51204 c -1.2487,1.16545 -4.495307,4.1966096 -8.231611,7.6880696 -0.577829,0.52887 -0.881455,1.35154 -0.901042,2.00772 -0.02938,1.12628 0.685601,2.53172 1.924506,4.15258 1.498439,1.96364 3.56488,3.95177 4.318996,4.82341 l -7.546049,2.17911 c -0.989166,0.28891 -1.615946,1.29767 -1.400484,2.32601 0.225256,1.07731 1.282941,1.77264 2.36025,1.54739 l 11.492999,-2.39459 c 1.699211,-0.36237 2.45329,-2.35044 1.429846,-3.73625 -0.494582,-0.66597 -4.436521,-6.00361 -5.102494,-6.91443 l 6.336562,-4.68138 c 0.09304,0.18118 1.880358,3.77064 1.968501,3.95182 0.288915,0.57783 0.896165,0.95979 1.581726,0.93041 l 6.919212,-0.31342 c 0.759013,-0.0392 1.385794,-0.65127 1.424969,-1.42497 0.02938,-0.84226 -0.612052,-1.54257 -1.434724,-1.57685 l -5.655879,-0.25947 -1.919628,-4.9360796 c -0.323193,-0.82757 -6.635214,-8.11411 -7.208147,-8.78987001 -0.313399,-0.36727 -0.778621,-0.58759 -1.292791,-0.57289999605 z M 42.90629,1.3668414 c -2.149721,0 -3.888034,1.74329 -3.888034,3.89301 0,2.14482 1.74321,3.88813 3.888034,3.88813 2.149722,0 3.893008,-1.74331 3.893008,-3.88813 0,-2.14972 -1.743286,-3.89301 -3.893008,-3.89301 z m -20.091778,5.45513 -12.633911,0.88631 v 1.84618 l 12.633911,0.8863096 z m -5.969297,5.4943396 -12.633911,0.88631 v 1.84608 l 12.633911,0.88143 z m 3.32499,4.19169 c -0.734529,0.68556 -12.76125,10.63104 -13.534953,11.27743 -0.812879,0.67576 -0.964663,1.88531 -0.323174,2.73736 0.665973,0.88144 1.914656,1.05772 2.79609,0.39175 0,0 6.331653,-4.76949 12.927723,-9.73491 -0.901022,-1.16545 -1.914655,-2.80592 -1.865686,-4.67163 z M 12.633911,17.810551 0,18.691991 v 1.84608 l 12.633911,0.8864 z"
   style="stroke-width:0.0489686" />
</svg>
