<?xml version="1.0" encoding="UTF-8" standalone="no"?>
<!-- Generator: Adobe Illustrator 16.0.0, SVG Export Plug-In . SVG Version: 6.00 Build 0)  -->

<svg
   version="1.1"
   id="Capa_1"
   x="0px"
   y="0px"
   width="485.213px"
   height="485.212px"
   viewBox="0 0 485.213 485.212"
   style="enable-background:new 0 0 485.213 485.212;"
   xml:space="preserve"
   sodipodi:docname="marker.svg"
   inkscape:version="1.2.1 (9c6d41e410, 2022-07-14)"
   xmlns:inkscape="http://www.inkscape.org/namespaces/inkscape"
   xmlns:sodipodi="http://sodipodi.sourceforge.net/DTD/sodipodi-0.dtd"
   xmlns="http://www.w3.org/2000/svg"
   xmlns:svg="http://www.w3.org/2000/svg"><defs
   id="defs3463" /><sodipodi:namedview
   id="namedview3461"
   pagecolor="#505050"
   bordercolor="#eeeeee"
   borderopacity="1"
   inkscape:showpageshadow="0"
   inkscape:pageopacity="0"
   inkscape:pagecheckerboard="0"
   inkscape:deskcolor="#505050"
   showgrid="false"
   inkscape:zoom="1.7085315"
   inkscape:cx="190.51448"
   inkscape:cy="242.89865"
   inkscape:window-width="1920"
   inkscape:window-height="1009"
   inkscape:window-x="1912"
   inkscape:window-y="-8"
   inkscape:window-maximized="1"
   inkscape:current-layer="Capa_1" />
<g
   id="g3428"
   style="fill:#ffffff;fill-opacity:1">
	<path
   d="M303.255,0h-121.3c-50.243,0-90.978,40.75-90.978,90.978v121.304c0,50.26,40.734,90.976,90.978,90.976l60.651,181.955   l60.648-181.955c50.26,0,90.98-40.716,90.98-90.976V90.978C394.235,40.75,353.515,0,303.255,0z M333.586,212.282   c0,16.729-13.595,30.324-30.331,30.324h-121.3c-16.717,0-30.327-13.595-30.327-30.324V90.978c0-16.701,13.609-30.327,30.327-30.327   h121.3c16.736,0,30.331,13.625,30.331,30.327V212.282z"
   id="path3426"
   style="fill:#ffffff;fill-opacity:1" />
</g>
<g
   id="g3430">
</g>
<g
   id="g3432">
</g>
<g
   id="g3434">
</g>
<g
   id="g3436">
</g>
<g
   id="g3438">
</g>
<g
   id="g3440">
</g>
<g
   id="g3442">
</g>
<g
   id="g3444">
</g>
<g
   id="g3446">
</g>
<g
   id="g3448">
</g>
<g
   id="g3450">
</g>
<g
   id="g3452">
</g>
<g
   id="g3454">
</g>
<g
   id="g3456">
</g>
<g
   id="g3458">
</g>
</svg>
